<svg width="98" height="102" viewBox="0 0 98 102" fill="none" xmlns="http://www.w3.org/2000/svg">
<mask id="mask0_433_106" style="mask-type:luminance" maskUnits="userSpaceOnUse" x="21" y="24" width="67" height="54">
<path d="M21.4666 24.2858H87.7332V77.7143H21.4666V24.2858Z" fill="white"/>
</mask>
<g mask="url(#mask0_433_106)">
<path d="M68.1144 25.9052L68.1268 25.9102L70.0258 26.4913L70.0299 26.4929C71.1606 26.8386 72.0925 27.4346 72.7614 28.1793C73.4859 28.1657 74.2063 28.2722 74.8777 28.4922C75.5492 28.7122 76.1574 29.041 76.6649 29.4582L80.2267 32.33C82.7039 34.3287 84.6449 36.7167 85.9291 39.3456C87.2134 41.9746 87.8135 44.7884 87.6921 47.6123L87.6714 48.2951V48.3085C87.6094 49.7396 87.0302 51.125 86.005 52.2943C84.9798 53.4637 83.5533 54.3661 81.9007 54.8907C80.248 55.4153 78.4414 55.5393 76.7026 55.2473C74.9638 54.9553 73.3687 54.2602 72.1132 53.2473L68.9448 50.6944L68.688 50.7812L68.6321 50.7979C67.2117 51.2363 65.7049 51.4648 64.184 51.4725C63.9885 51.9503 63.7259 52.4085 63.4012 52.8382C61.7808 54.9812 59.5494 56.7814 56.8926 58.0893L56.8905 58.0909C56.348 58.3594 55.7684 58.5757 55.1634 58.7354C55.1535 59.9593 54.8709 61.1719 54.3289 62.3151L54.3082 62.3602L54.2046 62.5572L57.3854 65.1201C58.6424 66.1323 59.5052 67.4185 59.8677 68.8207C60.2302 70.2229 60.0766 71.68 59.4259 73.0127C58.7751 74.3455 57.6556 75.4959 56.2048 76.3226C54.7541 77.1493 53.0353 77.6161 51.2599 77.6658H51.2433L50.3943 77.6825C46.8923 77.7802 43.4027 77.2962 40.1424 76.2608C36.8821 75.2253 33.9207 73.6605 31.442 71.6635L27.8802 68.7917C27.3636 68.3828 26.9565 67.8928 26.684 67.3521C26.4116 66.8113 26.2795 66.2313 26.296 65.6477C25.3467 65.0929 24.6197 64.3262 24.2045 63.4421L24.2003 63.4388L23.4755 61.8977C21.4008 57.4608 20.9192 52.6422 22.086 47.9946L22.3511 46.9027C22.5644 46.0311 23.0344 45.2831 23.6764 44.682C23.2027 43.8757 22.9377 43.0001 22.8975 42.1085C22.8572 41.2169 23.0426 40.328 23.4424 39.4961L23.4465 39.4878C24.9396 36.4027 27.2102 33.601 30.1149 31.2596C33.0195 28.9183 36.4951 27.0882 40.3218 25.8852L40.3321 25.8819C41.3661 25.5589 42.471 25.4095 43.5791 25.4428C44.6872 25.4761 45.7752 25.6914 46.7766 26.0755C47.5517 25.5455 48.4819 25.184 49.479 25.0253L50.8416 24.7916L50.8602 24.7899C56.6273 23.846 62.6076 24.2325 68.1144 25.9052ZM68.5597 29.6152L66.6545 29.0308C61.8709 27.5782 56.6938 27.2443 51.6824 28.0624L50.3156 28.2962C49.0524 28.4965 48.4104 29.6486 49.0317 30.5669L60.7526 47.1798C61.0011 47.5471 61.436 47.7976 61.933 47.9145C63.6518 48.2651 65.4741 48.1983 67.1515 47.6807L67.4 47.5972C67.7423 47.4941 68.0401 47.3129 68.2571 47.0758C68.474 46.8386 68.6007 46.5557 68.6218 46.2615L69.7607 31.1679C69.7963 30.8391 69.6984 30.5099 69.4818 30.2299C69.2651 29.9498 68.9415 29.7341 68.5597 29.6152ZM41.8252 28.9974C35.1778 31.0845 29.8972 35.3421 27.3086 40.7016C26.6046 42.1709 27.3086 43.8238 28.9653 44.642L50.5434 55.2442C51.8273 55.8787 53.4426 55.8787 54.7265 55.2442C56.8229 54.2134 58.5837 52.7938 59.8621 51.1035C60.6491 50.0683 60.6491 48.766 59.8621 47.7308L46.7124 30.3331C45.6976 28.9974 43.6475 28.4297 41.8252 28.9974ZM28.0749 62.2567C28.3648 62.8745 29.131 63.2752 29.9593 63.2418L48.7004 62.3068C49.0652 62.2898 49.4161 62.1876 49.7103 62.0127C50.0044 61.8378 50.2291 61.5977 50.357 61.3217L50.4606 61.1213C51.1025 59.7689 51.1854 58.2996 50.7505 56.9138C50.6841 56.7146 50.5693 56.5279 50.4129 56.3645C50.2566 56.2012 50.0616 56.0644 49.8393 55.9621L29.2345 46.512C28.0956 46.0111 26.6667 46.5287 26.4182 47.5471L26.149 48.6491C25.1343 52.6896 25.5484 56.8638 27.3501 60.7206L28.0749 62.2567ZM49.8807 63.7928C49.7292 63.6774 49.55 63.5882 49.3541 63.5307C49.1582 63.4733 48.9498 63.4488 48.7418 63.4588L31.5746 64.7111C30.5184 64.7946 30.0629 65.8297 30.8084 66.4308L34.3702 69.3026C38.574 72.692 44.3309 74.5119 50.2742 74.3449L51.1232 74.3282C52.0913 74.2998 53.0279 74.0441 53.8183 73.5926C54.6086 73.141 55.2182 72.5132 55.5723 71.7863C55.9264 71.0593 56.0095 70.2648 55.8114 69.5003C55.6133 68.7358 55.1427 68.0346 54.4573 67.4827L49.8807 63.7928ZM70.4648 47.1965L75.0414 50.8864C75.7259 51.439 76.5956 51.8185 77.5438 51.9782C78.492 52.1379 79.4774 52.0709 80.379 51.7854C81.2807 51.5 82.0593 51.0085 82.6194 50.3712C83.1794 49.734 83.4965 48.9788 83.5318 48.1983L83.5525 47.5137C83.7596 42.7219 81.5024 38.0803 77.2986 34.6909L73.7367 31.8191C73.5687 31.6837 73.3564 31.5895 73.1246 31.5477C72.8927 31.5058 72.6509 31.518 72.4273 31.5828C72.2037 31.6475 72.0076 31.7622 71.8618 31.9134C71.716 32.0647 71.6265 32.2462 71.6038 32.4369L70.0506 46.2782C70.0299 46.6121 70.1749 46.9628 70.4648 47.1965Z" fill="black"/>
</g>
<path d="M15.9643 97.9542C15.791 97.9676 15.631 97.9276 15.4843 97.8342C15.351 97.7542 15.2576 97.6476 15.2043 97.5142C15.151 97.4476 15.0643 97.3009 14.9443 97.0742C14.8243 96.8609 14.751 96.6742 14.7243 96.5142C14.6843 96.0876 14.6576 95.6742 14.6443 95.2742C14.6443 94.8742 14.6643 94.3142 14.7043 93.5942C14.7443 93.0076 14.8243 92.4876 14.9443 92.0342C15.0643 91.5676 15.1843 91.1742 15.3043 90.8542C15.4243 90.5209 15.5176 90.2742 15.5843 90.1142C15.651 89.9409 15.6643 89.8542 15.6243 89.8542C15.571 89.8542 15.511 89.9076 15.4443 90.0142C15.391 90.1076 15.3243 90.2342 15.2443 90.3942C15.1776 90.5542 15.0976 90.7276 15.0043 90.9142C14.9243 91.1009 14.8376 91.2809 14.7443 91.4542C14.5576 91.8676 14.3376 92.3076 14.0843 92.7742C13.8443 93.2276 13.5976 93.6676 13.3443 94.0942C13.091 94.5209 12.871 94.8942 12.6843 95.2142C12.5643 95.3476 12.4243 95.5409 12.2643 95.7942C12.1043 96.0342 11.931 96.2876 11.7443 96.5542C11.5576 96.8209 11.3643 97.0409 11.1643 97.2142C10.871 97.4942 10.571 97.6609 10.2643 97.7142C9.95763 97.7809 9.67096 97.7476 9.4043 97.6142C9.27096 97.6009 9.13096 97.5276 8.9843 97.3942C8.83763 97.2742 8.71763 97.1209 8.6243 96.9342C8.5443 96.7476 8.5243 96.5742 8.5643 96.4142C8.55096 96.2276 8.55096 95.9409 8.5643 95.5542C8.59096 95.1542 8.63096 94.7209 8.6843 94.2542C8.73763 93.7742 8.79096 93.3142 8.8443 92.8742C8.91096 92.4342 8.97096 92.0676 9.0243 91.7742C9.1443 90.9209 9.3043 90.0476 9.5043 89.1542C9.71763 88.2609 9.91096 87.3609 10.0843 86.4542C10.191 86.1876 10.2843 85.8876 10.3643 85.5542C10.4576 85.2076 10.551 84.8876 10.6443 84.5942C10.6576 84.3009 10.7643 84.1209 10.9643 84.0542C11.1643 83.9742 11.3776 83.9609 11.6043 84.0142C11.8443 84.0676 12.011 84.1609 12.1043 84.2942C12.2376 84.4276 12.3643 84.6342 12.4843 84.9142C12.6043 85.1942 12.571 85.5476 12.3843 85.9742C12.1176 86.6276 11.8576 87.4276 11.6043 88.3742C11.3643 89.3076 11.1443 90.4409 10.9443 91.7742C10.891 92.0942 10.831 92.4542 10.7643 92.8542C10.711 93.2409 10.6576 93.6142 10.6043 93.9742C10.5643 94.3342 10.531 94.6342 10.5043 94.8742C10.491 95.1009 10.4976 95.2209 10.5243 95.2342C10.631 95.2609 10.7443 95.2009 10.8643 95.0542C10.9976 94.9076 11.1376 94.6742 11.2843 94.3542C11.831 93.4476 12.3443 92.5476 12.8243 91.6542C13.3176 90.7609 13.811 89.8276 14.3043 88.8542C14.531 88.4676 14.7576 88.0476 14.9843 87.5942C15.2243 87.1276 15.451 86.7009 15.6643 86.3142C15.891 85.9142 16.111 85.5276 16.3243 85.1542C16.5376 84.7809 16.7243 84.4676 16.8843 84.2142C17.0443 83.9476 17.1643 83.8009 17.2443 83.7742C17.6043 83.7742 17.871 83.8676 18.0443 84.0542C18.231 84.2409 18.3776 84.4676 18.4843 84.7342C18.511 84.8009 18.5243 84.9142 18.5243 85.0742C18.5376 85.2342 18.5176 85.3742 18.4643 85.4942C18.451 85.5876 18.391 85.7809 18.2843 86.0742C18.191 86.3676 18.1043 86.6942 18.0243 87.0542C17.891 87.4142 17.771 87.7742 17.6643 88.1342C17.571 88.4809 17.5043 88.7676 17.4643 88.9942C17.3576 89.5676 17.2243 90.1942 17.0643 90.8742C16.9043 91.5542 16.7643 92.2342 16.6443 92.9142C16.5376 93.5809 16.4776 94.1742 16.4643 94.6942C16.451 95.0676 16.451 95.3142 16.4643 95.4342C16.491 95.5409 16.531 95.6542 16.5843 95.7742C16.611 95.8809 16.671 95.9076 16.7643 95.8542C16.8576 95.8009 16.951 95.7076 17.0443 95.5742C17.231 95.2942 17.371 95.0542 17.4643 94.8542C17.571 94.6542 17.6776 94.4409 17.7843 94.2142C17.891 93.9742 18.0376 93.6742 18.2243 93.3142C18.5576 92.7009 18.8976 92.0276 19.2443 91.2942C19.6043 90.5609 19.9443 89.8342 20.2643 89.1142C20.5976 88.3942 20.8843 87.7542 21.1243 87.1942C21.3776 86.4742 21.591 85.8942 21.7643 85.4542C21.9376 85.0009 22.0976 84.6542 22.2443 84.4142C22.391 84.1742 22.531 84.0142 22.6643 83.9342C22.731 83.8809 22.871 83.8542 23.0843 83.8542C23.311 83.8542 23.4843 83.9076 23.6043 84.0142C23.6576 84.0676 23.751 84.1542 23.8843 84.2742C24.0176 84.3942 24.0776 84.5342 24.0643 84.6942C23.9976 84.9076 23.871 85.2542 23.6843 85.7342C23.511 86.2142 23.3043 86.7476 23.0643 87.3342C22.8376 87.9076 22.611 88.4609 22.3843 88.9942C22.171 89.5142 21.991 89.9276 21.8443 90.2342C21.6976 90.5142 21.5576 90.7542 21.4243 90.9542C21.291 91.1542 21.2243 91.3076 21.2243 91.4142C21.2243 91.4676 21.1576 91.6342 21.0243 91.9142C20.891 92.1809 20.7176 92.5076 20.5043 92.8942C20.3043 93.2809 20.0843 93.6809 19.8443 94.0942C19.6043 94.5076 19.3776 94.8876 19.1643 95.2342C18.951 95.5809 18.771 95.8476 18.6243 96.0342C18.291 96.4476 17.931 96.7942 17.5443 97.0742C17.171 97.3676 16.8376 97.5876 16.5443 97.7342C16.251 97.8809 16.0576 97.9542 15.9643 97.9542ZM24.1141 97.5342C24.0208 97.3876 23.8608 97.2942 23.6341 97.2542C23.4075 97.2142 23.0608 97.2076 22.5941 97.2342C22.4075 97.2609 22.2141 97.2476 22.0141 97.1942C21.8141 97.1409 21.6541 97.0609 21.5341 96.9542C21.4141 96.8476 21.3675 96.7409 21.3941 96.6342C21.4075 96.4742 21.5941 96.3009 21.9541 96.1142C22.3141 95.9276 22.7808 95.8276 23.3541 95.8142L24.1941 95.7942L24.3941 95.3942C24.4475 95.2476 24.4875 95.0876 24.5141 94.9142C24.5541 94.7409 24.6208 94.5009 24.7141 94.1942C24.7675 94.0076 24.8475 93.7476 24.9541 93.4142C25.0608 93.0809 25.1741 92.7276 25.2941 92.3542C25.4141 91.9676 25.5208 91.6209 25.6141 91.3142C25.7075 91.0076 25.7675 90.7942 25.7941 90.6742C25.8475 90.5542 25.9208 90.3542 26.0141 90.0742C26.1075 89.7809 26.1941 89.4876 26.2741 89.1942C26.3675 88.8876 26.4275 88.6676 26.4541 88.5342C26.8008 87.4809 27.0275 86.7476 27.1341 86.3342C27.2408 85.9076 27.2675 85.6876 27.2141 85.6742C27.1608 85.6742 27.0341 85.6809 26.8341 85.6942C26.6341 85.7076 26.4141 85.7276 26.1741 85.7542C25.9341 85.7676 25.7208 85.7876 25.5341 85.8142C25.3475 85.8409 25.2341 85.8676 25.1941 85.8942C25.1275 85.9876 25.0141 85.9742 24.8541 85.8542C24.6941 85.7209 24.5941 85.5876 24.5541 85.4542C24.5408 85.3342 24.5408 85.2209 24.5541 85.1142C24.5675 85.0076 24.6075 84.9342 24.6741 84.8942C24.7675 84.8142 24.9608 84.7276 25.2541 84.6342C25.5475 84.5276 25.8741 84.4342 26.2341 84.3542C26.6075 84.2742 26.9475 84.2142 27.2541 84.1742C27.4808 84.1476 27.7075 84.1009 27.9341 84.0342C28.1608 83.9542 28.3408 83.8609 28.4741 83.7542C28.5941 83.7142 28.7075 83.6809 28.8141 83.6542C28.9341 83.6276 29.0541 83.6209 29.1741 83.6342C29.2808 83.7009 29.4608 83.7342 29.7141 83.7342C29.9808 83.7342 30.2608 83.7276 30.5541 83.7142C31.3008 83.6476 31.8208 83.6742 32.1141 83.7942C32.4208 83.9009 32.6208 84.0476 32.7141 84.2342C32.7808 84.4876 32.7675 84.7009 32.6741 84.8742C32.5808 85.0342 32.4208 85.1076 32.1941 85.0942C32.0741 85.1209 31.9075 85.1476 31.6941 85.1742C31.4808 85.1876 31.2008 85.2009 30.8541 85.2142C29.9741 85.2942 29.5008 85.3876 29.4341 85.4942C29.3808 85.5476 29.3341 85.6009 29.2941 85.6542C29.2675 85.7076 29.2275 85.7676 29.1741 85.8342C29.1875 85.8876 29.1541 86.0476 29.0741 86.3142C29.0075 86.5676 28.9208 86.8409 28.8141 87.1342C28.7608 87.3076 28.6808 87.5542 28.5741 87.8742C28.4675 88.1942 28.3541 88.5276 28.2341 88.8742C28.1275 89.2076 28.0275 89.5142 27.9341 89.7942C27.8408 90.0609 27.7741 90.2409 27.7341 90.3342C27.6808 90.4542 27.6341 90.5876 27.5941 90.7342C27.5675 90.8676 27.5475 90.9676 27.5341 91.0342C27.3475 91.6876 27.1875 92.2342 27.0541 92.6742C26.9341 93.1142 26.8275 93.5009 26.7341 93.8342C26.6408 94.1542 26.5541 94.4676 26.4741 94.7742C26.3941 95.0676 26.3008 95.4009 26.1941 95.7742C26.1941 95.7742 26.3075 95.7676 26.5341 95.7542C26.7608 95.7276 27.0475 95.7009 27.3941 95.6742C28.0208 95.6076 28.4475 95.5676 28.6741 95.5542C28.9008 95.5409 29.0341 95.5609 29.0741 95.6142C29.1141 95.6542 29.1541 95.7342 29.1941 95.8542C29.4608 96.2142 29.4408 96.5142 29.1341 96.7542C28.8408 96.9942 28.3208 97.1076 27.5741 97.0942C26.8808 97.1209 26.3675 97.1409 26.0341 97.1542C25.7141 97.1809 25.5075 97.2142 25.4141 97.2542C25.3208 97.2942 25.2741 97.3609 25.2741 97.4542C25.2875 97.6676 25.1541 97.7942 24.8741 97.8342C24.6075 97.8876 24.3541 97.7876 24.1141 97.5342ZM34.3177 97.5542C34.2644 97.6076 34.2044 97.6276 34.1377 97.6142C34.0711 97.6142 33.9644 97.5809 33.8177 97.5142C33.5644 97.4476 33.3377 97.3009 33.1377 97.0742C32.9511 96.8476 32.9244 96.5876 33.0577 96.2942C33.1111 96.2009 33.1777 96.0009 33.2577 95.6942C33.3511 95.3742 33.4511 95.0076 33.5577 94.5942C33.6644 94.1809 33.7711 93.7676 33.8777 93.3542C33.9844 92.9409 34.0777 92.5809 34.1577 92.2742C34.2377 91.9542 34.2911 91.7409 34.3177 91.6342C34.3177 91.5276 34.3444 91.3142 34.3977 90.9942C34.4644 90.6742 34.5244 90.3142 34.5777 89.9142C34.7244 89.6342 34.8244 89.3276 34.8777 88.9942C34.9444 88.6609 34.9911 88.4209 35.0177 88.2742C35.0711 88.0609 35.1311 87.8342 35.1977 87.5942C35.2777 87.3542 35.3444 87.1142 35.3977 86.8742C35.4511 86.6609 35.5044 86.4409 35.5577 86.2142C35.6244 85.9876 35.6577 85.8409 35.6577 85.7742V85.4542H34.9177C34.7177 85.4676 34.4911 85.4676 34.2377 85.4542C33.9844 85.4409 33.7044 85.4342 33.3977 85.4342C32.7711 85.4076 32.3511 85.3476 32.1377 85.2542C31.9377 85.1476 31.8244 84.9476 31.7977 84.6542C31.7711 84.4942 31.8044 84.3542 31.8977 84.2342C31.9911 84.1009 32.2111 83.9942 32.5577 83.9142C32.9044 83.8342 33.4377 83.8076 34.1577 83.8342C34.7177 83.8076 35.1577 83.8076 35.4777 83.8342C35.7977 83.8476 35.9844 83.8542 36.0377 83.8542C36.0911 83.8009 36.1244 83.7476 36.1377 83.6942C36.1511 83.6409 36.1711 83.5876 36.1977 83.5342C36.1977 83.4676 36.2044 83.3942 36.2177 83.3142C36.2444 83.2209 36.3111 83.1542 36.4177 83.1142C36.5244 82.9142 36.7244 82.8342 37.0177 82.8742C37.3244 82.9009 37.5511 83.0209 37.6977 83.2342C37.7511 83.3542 37.7644 83.4809 37.7377 83.6142C37.7244 83.7476 37.7644 83.8676 37.8577 83.9742C37.9111 83.9209 38.0511 83.8876 38.2777 83.8742C38.5044 83.8609 38.7444 83.8476 38.9977 83.8342C39.3044 83.8342 39.5777 83.8276 39.8177 83.8142C40.0577 83.7876 40.2244 83.7742 40.3177 83.7742C40.4377 83.7076 40.5911 83.6742 40.7777 83.6742C40.9777 83.6742 41.1777 83.6876 41.3777 83.7142C41.6844 83.7142 41.8977 83.7942 42.0177 83.9542C42.1511 84.1009 42.2377 84.2076 42.2777 84.2742C42.2777 84.3276 42.2777 84.3809 42.2777 84.4342C42.2911 84.4876 42.3244 84.5409 42.3777 84.5942C42.4311 84.6476 42.4577 84.6876 42.4577 84.7142C42.4577 84.7276 42.4311 84.7876 42.3777 84.8942C42.3244 84.9476 42.2311 84.9942 42.0977 85.0342C41.9644 85.0609 41.8177 85.0742 41.6577 85.0742C41.5644 85.0742 41.4044 85.0876 41.1777 85.1142C40.9511 85.1276 40.7577 85.1342 40.5977 85.1342C40.2911 85.1876 39.9911 85.2342 39.6977 85.2742C39.4044 85.3009 39.0244 85.3276 38.5577 85.3542C38.3577 85.3542 38.1711 85.3676 37.9977 85.3942C37.8244 85.4076 37.7377 85.4476 37.7377 85.5142C37.6844 85.5142 37.6111 85.6542 37.5177 85.9342C37.4377 86.2142 37.3577 86.5076 37.2777 86.8142C37.1977 87.1609 37.1111 87.4609 37.0177 87.7142C36.9377 87.9676 36.8711 88.1342 36.8177 88.2142C36.8711 88.2676 36.8911 88.3342 36.8777 88.4142C36.8777 88.4942 36.8377 88.6342 36.7577 88.8342C36.7044 89.0209 36.6511 89.1676 36.5977 89.2742C36.5577 89.3809 36.5377 89.4876 36.5377 89.5942C36.5377 89.5942 36.5044 89.7009 36.4377 89.9142C36.3844 90.1142 36.3311 90.3676 36.2777 90.6742C36.2511 90.9676 36.2111 91.2142 36.1577 91.4142C36.1177 91.6142 36.0711 91.7409 36.0177 91.7942C36.0177 91.7942 35.9911 91.8409 35.9377 91.9342C35.8844 92.0142 35.8577 92.1076 35.8577 92.2142C35.8577 92.3342 35.8311 92.5342 35.7777 92.8142C35.7377 93.0809 35.6911 93.3342 35.6377 93.5742C35.5844 93.8142 35.5377 93.9476 35.4977 93.9742C35.6311 94.0009 35.6111 94.1809 35.4377 94.5142C35.4377 94.6476 35.4177 94.7809 35.3777 94.9142C35.3377 95.0476 35.3177 95.1409 35.3177 95.1942C35.2377 95.4476 35.1244 95.7542 34.9777 96.1142C34.8311 96.4742 34.6911 96.7942 34.5577 97.0742C34.4377 97.3542 34.3577 97.5142 34.3177 97.5542ZM47.5979 98.6942C47.4246 98.6276 47.2446 98.4542 47.0579 98.1742C46.8712 97.8942 46.7446 97.6609 46.6779 97.4742C46.7046 97.3942 46.7579 97.1742 46.8379 96.8142C46.9179 96.4676 47.0179 96.0476 47.1379 95.5542C47.2579 95.0609 47.3912 94.5609 47.5379 94.0542C47.6846 93.5342 47.8246 93.0742 47.9579 92.6742C47.9979 92.4876 48.0246 92.3476 48.0379 92.2542C48.0646 92.1476 48.0712 92.0742 48.0579 92.0342C48.0579 91.9809 48.0312 91.9409 47.9779 91.9142C47.8979 91.8609 47.7046 91.8009 47.3979 91.7342C47.0912 91.6676 46.7379 91.6009 46.3379 91.5342C45.9379 91.4676 45.5512 91.4076 45.1779 91.3542C44.8179 91.2876 44.5446 91.2409 44.3579 91.2142C44.1979 91.2276 44.0246 91.2076 43.8379 91.1542C43.6512 91.1009 43.4712 91.0809 43.2979 91.0942C43.0846 91.0942 42.9512 91.0876 42.8979 91.0742C42.8446 91.0609 42.7979 91.0209 42.7579 90.9542C42.7446 90.8742 42.7312 90.8409 42.7179 90.8542C42.7046 90.8542 42.6579 90.9876 42.5779 91.2542C42.4979 91.5209 42.3512 92.0076 42.1379 92.7142C41.9112 93.4076 41.7446 93.9676 41.6379 94.3942C41.5446 94.8209 41.4779 95.1676 41.4379 95.4342C41.3979 95.7009 41.3579 95.9342 41.3179 96.1342C41.2246 96.4409 41.1246 96.7676 41.0179 97.1142C40.9112 97.4742 40.8046 97.7742 40.6979 98.0142C40.6046 98.2676 40.5179 98.4009 40.4379 98.4142C40.4112 98.4676 40.3046 98.4676 40.1179 98.4142C39.9312 98.3742 39.7779 98.3276 39.6579 98.2742C39.4579 98.1276 39.3379 97.9342 39.2979 97.6942C39.2579 97.4676 39.2846 97.1276 39.3779 96.6742C39.4712 96.2076 39.6112 95.5676 39.7979 94.7542C39.9046 94.2209 40.0046 93.7209 40.0979 93.2542C40.2046 92.7876 40.3046 92.5142 40.3979 92.4342C40.4646 92.2076 40.5512 91.8676 40.6579 91.4142C40.7779 90.9476 40.9246 90.5209 41.0979 90.1342C41.2046 89.7342 41.3646 89.2476 41.5779 88.6742C41.8046 88.1009 42.0446 87.5142 42.2979 86.9142C42.5512 86.3009 42.7912 85.7342 43.0179 85.2142C43.2446 84.6942 43.4246 84.2809 43.5579 83.9742C43.6646 83.8809 43.7246 83.7476 43.7379 83.5742C43.7646 83.4009 43.7846 83.2676 43.7979 83.1742C43.9046 82.9742 44.0846 82.7876 44.3379 82.6142C44.5912 82.4276 44.7646 82.3409 44.8579 82.3542C45.0312 82.3809 45.2046 82.4809 45.3779 82.6542C45.5512 82.8276 45.6846 83.0142 45.7779 83.2142C45.8846 83.4142 45.9046 83.5809 45.8379 83.7142C45.7446 83.8076 45.6246 84.0276 45.4779 84.3742C45.3446 84.7209 45.1446 85.2276 44.8779 85.8942C44.8112 86.0276 44.6979 86.2009 44.5379 86.4142C44.3912 86.6276 44.2846 86.8276 44.2179 87.0142C44.1246 87.1609 44.0646 87.3076 44.0379 87.4542C44.0246 87.6009 43.9846 87.7076 43.9179 87.7742C43.8779 87.8676 43.8179 87.9942 43.7379 88.1542C43.6579 88.3142 43.5846 88.4809 43.5179 88.6542C43.4512 88.8142 43.3912 88.9609 43.3379 89.0942C43.2979 89.2276 43.2846 89.3076 43.2979 89.3342C43.3246 89.3609 43.4512 89.3942 43.6779 89.4342C43.9046 89.4742 44.1579 89.5142 44.4379 89.5542C44.7312 89.5809 44.9779 89.6076 45.1779 89.6342C45.2446 89.6209 45.4046 89.6342 45.6579 89.6742C45.9246 89.7009 46.2246 89.7342 46.5579 89.7742C46.8912 89.8142 47.1979 89.8542 47.4779 89.8942C47.8779 90.0276 48.2046 90.1142 48.4579 90.1542C48.7246 90.1942 48.8646 90.1876 48.8779 90.1342C48.8779 90.1342 48.9046 90.0609 48.9579 89.9142C49.0246 89.7676 49.1179 89.5542 49.2379 89.2742C49.2912 89.0742 49.3512 88.7942 49.4179 88.4342C49.4979 88.0609 49.6046 87.6676 49.7379 87.2542C49.8979 86.9742 50.0379 86.6676 50.1579 86.3342C50.2779 85.9876 50.3712 85.6542 50.4379 85.3342C50.5179 85.0009 50.5779 84.7276 50.6179 84.5142C50.7112 84.1142 50.8579 83.7942 51.0579 83.5542C51.2712 83.3142 51.4112 83.1409 51.4779 83.0342C51.4779 83.0342 51.5179 83.0542 51.5979 83.0942C51.6912 83.1209 51.7846 83.1476 51.8779 83.1742C52.1179 83.2142 52.3046 83.3276 52.4379 83.5142C52.5712 83.6876 52.6246 83.9742 52.5979 84.3742C52.5846 84.7742 52.4512 85.3276 52.1979 86.0342C52.1446 86.2076 52.0446 86.4609 51.8979 86.7942C51.7646 87.1142 51.6379 87.4409 51.5179 87.7742C51.3979 88.0942 51.3179 88.3342 51.2779 88.4942C51.1712 88.8276 51.0779 89.1409 50.9979 89.4342C50.9179 89.7276 50.7646 90.1276 50.5379 90.6342C50.5246 90.6742 50.5512 90.7342 50.6179 90.8142C50.6979 90.8809 50.8046 90.9676 50.9379 91.0742C51.1246 91.1809 51.2046 91.3209 51.1779 91.4942C51.1512 91.6542 51.0646 91.7942 50.9179 91.9142C50.7712 92.0342 50.6112 92.0942 50.4379 92.0942C50.2646 92.0809 50.1379 92.1142 50.0579 92.1942C49.9912 92.2742 49.9379 92.4676 49.8979 92.7742C49.7512 93.1076 49.5846 93.5409 49.3979 94.0742C49.2246 94.6076 49.0579 95.1609 48.8979 95.7342C48.7379 96.2942 48.6046 96.8009 48.4979 97.2542C48.4046 97.7209 48.3579 98.0409 48.3579 98.2142C48.2646 98.4942 48.1579 98.6542 48.0379 98.6942C47.9312 98.7342 47.7846 98.7342 47.5979 98.6942ZM58.0265 97.9342C57.4932 97.8009 57.0598 97.5209 56.7265 97.0942C56.4065 96.6809 56.1465 96.1809 55.9465 95.5942C55.9332 95.4209 55.9265 95.1809 55.9265 94.8742C55.9398 94.5676 55.9598 94.2809 55.9865 94.0142C56.0132 93.7476 56.0398 93.5942 56.0665 93.5542C56.1065 93.5276 56.1265 93.4476 56.1265 93.3142C56.1132 93.2609 56.1198 93.1742 56.1465 93.0542C56.1865 92.9209 56.2265 92.7876 56.2665 92.6542C56.3332 92.4942 56.3665 92.3676 56.3665 92.2742C56.3665 92.1676 56.3598 92.0876 56.3465 92.0342C56.3465 92.0342 56.3665 91.9942 56.4065 91.9142C56.4465 91.8209 56.4932 91.7476 56.5465 91.6942C56.6265 91.6142 56.6598 91.5342 56.6465 91.4542C56.6465 91.3742 56.6465 91.3342 56.6465 91.3342C56.6332 91.2809 56.6465 91.2076 56.6865 91.1142C56.7265 91.0209 56.7665 90.9476 56.8065 90.8942C56.8332 90.8676 56.8665 90.8142 56.9065 90.7342C56.9598 90.6409 56.9865 90.5942 56.9865 90.5942C56.9865 90.5542 57.0132 90.4476 57.0665 90.2742C57.1332 90.1009 57.2065 89.9142 57.2865 89.7142C57.3665 89.5009 57.4398 89.3076 57.5065 89.1342C57.5865 88.9609 57.6465 88.8476 57.6865 88.7942V88.7542C57.7398 88.6209 57.8132 88.4809 57.9065 88.3342C57.9198 88.2676 57.9532 88.1609 58.0065 88.0142C58.0598 87.8542 58.1198 87.7009 58.1865 87.5542C58.3332 87.2342 58.5132 86.8742 58.7265 86.4742C58.9532 86.0609 59.1932 85.6542 59.4465 85.2542C59.6998 84.8409 59.9398 84.4742 60.1665 84.1542C60.4065 83.8209 60.6132 83.5742 60.7865 83.4142C61.0132 83.1609 61.2398 82.9809 61.4665 82.8742C61.7065 82.7542 61.9265 82.7942 62.1265 82.9942C62.2198 83.0876 62.2998 83.2276 62.3665 83.4142C62.4332 83.5876 62.4598 83.7542 62.4465 83.9142C62.4465 84.0609 62.3932 84.1409 62.2865 84.1542C62.1932 84.2076 62.0665 84.3609 61.9065 84.6142C61.7465 84.8542 61.5665 85.1409 61.3665 85.4742C61.1798 85.8076 60.9932 86.1542 60.8065 86.5142C60.6198 86.8609 60.4465 87.1742 60.2865 87.4542C60.1132 87.8409 59.9532 88.1809 59.8065 88.4742C59.6598 88.7542 59.5865 88.8942 59.5865 88.8942C59.5732 88.9342 59.5598 88.9676 59.5465 88.9942C59.5332 89.0209 59.5198 89.0476 59.5065 89.0742C59.3065 89.4876 59.1398 89.8676 59.0065 90.2142C58.8732 90.5476 58.7398 90.9009 58.6065 91.2742C58.5265 91.3676 58.4798 91.4609 58.4665 91.5542C58.4532 91.6476 58.4465 91.6942 58.4465 91.6942C58.4198 91.6809 58.3998 91.7142 58.3865 91.7942C58.3732 91.8609 58.3465 91.9409 58.3065 92.0342C58.2398 92.0876 58.1998 92.1742 58.1865 92.2942C58.1732 92.4009 58.1665 92.5076 58.1665 92.6142C58.0732 92.8542 57.9865 93.1476 57.9065 93.4942C57.8265 93.8276 57.7665 94.1542 57.7265 94.4742C57.6998 94.7809 57.6932 95.0209 57.7065 95.1942C57.7332 95.4209 57.7932 95.6142 57.8865 95.7742C57.9932 95.9209 58.1398 96.0409 58.3265 96.1342C58.4732 96.2009 58.6065 96.2609 58.7265 96.3142C58.8465 96.3542 58.9532 96.3742 59.0465 96.3742C59.1532 96.3876 59.2865 96.3876 59.4465 96.3742C59.6198 96.3476 59.8532 96.3076 60.1465 96.2542H60.1265C60.2998 96.2276 60.4798 96.1942 60.6665 96.1542C60.8665 96.1009 61.0532 96.0542 61.2265 96.0142C61.3865 95.9876 61.5398 95.9609 61.6865 95.9342C61.8332 95.8942 61.9465 95.8609 62.0265 95.8342C62.3198 95.7542 62.5532 95.6876 62.7265 95.6342C62.9132 95.5809 63.0398 95.5809 63.1065 95.6342C63.1732 95.6876 63.2465 95.7876 63.3265 95.9342C63.4065 96.0809 63.4265 96.2142 63.3865 96.3342C63.3598 96.4009 63.2265 96.5342 62.9865 96.7342C62.7465 96.9476 62.4732 97.1542 62.1665 97.3542C61.8598 97.5676 61.5798 97.7142 61.3265 97.7942C61.0598 97.9142 60.6998 97.9942 60.2465 98.0342C59.8065 98.0876 59.3798 98.1009 58.9665 98.0742C58.5532 98.0476 58.2398 98.0009 58.0265 97.9342ZM66.3413 96.8942C65.648 96.6409 65.108 96.1409 64.7213 95.3942C64.3347 94.6342 64.228 93.7476 64.4013 92.7342C64.428 92.3476 64.488 92.0009 64.5813 91.6942C64.688 91.3876 64.768 91.0809 64.8213 90.7742C64.8213 90.7476 64.8347 90.7076 64.8613 90.6542C64.888 90.5876 64.8947 90.5276 64.8813 90.4742C64.908 90.3942 64.968 90.2476 65.0613 90.0342C65.1547 89.8076 65.248 89.5942 65.3413 89.3942C65.4347 89.1809 65.4947 89.0609 65.5213 89.0342C65.588 89.0076 65.6213 88.9742 65.6213 88.9342C65.6213 88.8809 65.6213 88.8542 65.6213 88.8542C65.6213 88.7476 65.6947 88.5542 65.8413 88.2742C65.988 87.9942 66.1747 87.6876 66.4013 87.3542C66.6413 87.0076 66.8813 86.6742 67.1213 86.3542C67.3613 86.0342 67.5747 85.7676 67.7613 85.5542C67.948 85.3409 68.068 85.2342 68.1213 85.2342C68.1613 85.2342 68.1947 85.2076 68.2213 85.1542C68.248 85.1009 68.2747 85.0676 68.3013 85.0542C68.3413 85.0009 68.4613 84.9209 68.6613 84.8142C68.8747 84.7076 69.1213 84.5942 69.4013 84.4742C69.6947 84.3409 69.9813 84.2209 70.2613 84.1142C70.5413 84.0076 70.7813 83.9342 70.9813 83.8942C71.568 83.6809 72.0947 83.6809 72.5613 83.8942C73.028 84.1076 73.4013 84.5076 73.6813 85.0942C73.9613 85.6809 74.108 86.4276 74.1213 87.3342C74.068 87.6276 74.0347 87.9076 74.0213 88.1742C74.0213 88.4276 74.0013 88.6142 73.9613 88.7342C73.948 89.0276 73.9013 89.3609 73.8213 89.7342C73.7413 90.1076 73.6613 90.4342 73.5813 90.7142C73.5013 90.9809 73.4413 91.1209 73.4013 91.1342C73.4013 91.1876 73.388 91.2409 73.3613 91.2942C73.3347 91.3342 73.3213 91.3742 73.3213 91.4142C73.3347 91.4809 73.288 91.6342 73.1813 91.8742C73.0747 92.1142 72.948 92.3809 72.8013 92.6742C72.6547 92.9676 72.5213 93.2209 72.4013 93.4342C72.2813 93.6476 72.208 93.7542 72.1813 93.7542C72.1813 93.7542 72.168 93.7609 72.1413 93.7742C72.1147 93.7742 72.108 93.8009 72.1213 93.8542C72.1347 93.8809 72.088 93.9476 71.9813 94.0542C71.8747 94.1609 71.7547 94.2676 71.6213 94.3742C71.5013 94.4676 71.408 94.5142 71.3413 94.5142C71.3413 94.5142 71.328 94.5209 71.3013 94.5342C71.288 94.5476 71.3013 94.5742 71.3413 94.6142C71.3547 94.6409 71.248 94.7476 71.0213 94.9342C70.808 95.1076 70.5347 95.3142 70.2013 95.5542C69.868 95.7809 69.5347 95.9942 69.2013 96.1942C68.868 96.3809 68.6013 96.4942 68.4013 96.5342C68.3613 96.5876 68.3213 96.6209 68.2813 96.6342C68.2413 96.6342 68.188 96.6409 68.1213 96.6542C68.028 96.7476 67.8613 96.8209 67.6213 96.8742C67.3947 96.9409 67.1613 96.9742 66.9213 96.9742C66.6813 96.9876 66.488 96.9609 66.3413 96.8942ZM68.3613 94.7942C68.628 94.7009 68.8947 94.5742 69.1613 94.4142C69.4413 94.2409 69.6813 94.0609 69.8813 93.8742C70.0947 93.6742 70.228 93.4876 70.2813 93.3142C70.3213 93.1676 70.3613 93.0609 70.4013 92.9942C70.4547 92.9142 70.508 92.8542 70.5613 92.8142C70.668 92.7076 70.8013 92.5076 70.9613 92.2142C71.1347 91.9209 71.3013 91.6009 71.4613 91.2542C71.6213 90.9076 71.7547 90.5809 71.8613 90.2742C71.9813 89.9542 72.048 89.7209 72.0613 89.5742C72.0613 89.5476 72.0813 89.4342 72.1213 89.2342C72.1613 89.0342 72.208 88.8876 72.2613 88.7942C72.288 88.7409 72.2947 88.6942 72.2813 88.6542C72.2813 88.6009 72.2747 88.4609 72.2613 88.2342C72.2613 88.0076 72.268 87.6009 72.2813 87.0142C72.268 86.5342 72.2213 86.1809 72.1413 85.9542C72.0747 85.7142 71.988 85.5676 71.8813 85.5142C71.8547 85.4876 71.788 85.4609 71.6813 85.4342C71.588 85.4076 71.488 85.3942 71.3813 85.3942C71.2747 85.3809 71.1747 85.3942 71.0813 85.4342C71.0147 85.4476 70.9213 85.4809 70.8013 85.5342C70.6947 85.5742 70.6013 85.5942 70.5213 85.5942C70.4147 85.6476 70.3413 85.7142 70.3013 85.7942C70.2613 85.8609 70.2413 85.9142 70.2413 85.9542C70.2413 86.0609 70.1947 86.1609 70.1013 86.2542C70.008 86.3342 69.9013 86.3409 69.7813 86.2742C69.568 86.2876 69.4213 86.3142 69.3413 86.3542C69.2747 86.3942 69.208 86.4809 69.1413 86.6142C69.088 86.7342 68.9747 86.9409 68.8013 87.2342C68.428 87.5276 68.1613 87.8142 68.0013 88.0942C67.8413 88.3742 67.748 88.5876 67.7213 88.7342C67.4413 89.2409 67.2347 89.6342 67.1013 89.9142C66.968 90.1809 66.8747 90.4209 66.8213 90.6342C66.768 90.8476 66.728 91.1076 66.7013 91.4142C66.5813 91.6409 66.4947 91.8809 66.4413 92.1342C66.388 92.3876 66.3413 92.5542 66.3013 92.6342C66.2747 92.7009 66.2613 92.8276 66.2613 93.0142C66.2613 93.1876 66.268 93.3876 66.2813 93.6142C66.308 93.8276 66.3347 94.0276 66.3613 94.2142C66.4013 94.3876 66.4413 94.5142 66.4813 94.5942C66.5613 94.9009 66.7547 95.0742 67.0613 95.1142C67.368 95.1542 67.8013 95.0476 68.3613 94.7942ZM77.9637 97.1142C77.8703 97.3409 77.6837 97.4409 77.4037 97.4142C77.137 97.4009 76.9103 97.2876 76.7237 97.0742C76.7237 97.0742 76.6903 97.0676 76.6237 97.0542C76.5703 97.0409 76.5103 96.9876 76.4437 96.8942C76.1903 96.9609 75.9503 96.8742 75.7237 96.6342C75.5103 96.3809 75.4303 95.9742 75.4837 95.4142C75.5637 94.8009 75.6103 94.2209 75.6237 93.6742C75.637 93.1142 75.637 92.4742 75.6237 91.7542C75.6237 91.6876 75.6237 91.6142 75.6237 91.5342C75.637 91.4409 75.6437 91.3609 75.6437 91.2942C75.657 91.2142 75.6637 91.1609 75.6637 91.1342C75.677 90.9342 75.6837 90.6609 75.6837 90.3142C75.6837 89.9542 75.6837 89.6009 75.6837 89.2542C75.6837 88.9076 75.697 88.6542 75.7237 88.4942C75.697 88.3076 75.6903 88.1142 75.7037 87.9142C75.717 87.7009 75.7237 87.4876 75.7237 87.2742C75.7237 87.2342 75.717 87.1542 75.7037 87.0342C75.6903 86.9142 75.677 86.7676 75.6637 86.5942C75.6503 86.4209 75.6303 86.2409 75.6037 86.0542C75.617 85.7742 75.6103 85.5742 75.5837 85.4542C75.5703 85.3209 75.5503 85.2209 75.5237 85.1542C75.497 85.0742 75.457 84.9876 75.4037 84.8942C75.2703 84.7876 75.217 84.6876 75.2437 84.5942C75.2837 84.4876 75.357 84.3942 75.4637 84.3142C75.5703 84.2209 75.6637 84.1542 75.7437 84.1142C75.8637 84.0476 76.057 84.0609 76.3237 84.1542C76.5903 84.2342 76.8303 84.3476 77.0437 84.4942C77.0703 84.4942 77.0903 84.5076 77.1037 84.5342C77.117 84.5609 77.137 84.6009 77.1637 84.6542C77.1903 84.7076 77.2237 84.7742 77.2637 84.8542C77.3037 84.9209 77.357 85.0009 77.4237 85.0942C77.4903 85.1742 77.5303 85.3609 77.5437 85.6542C77.557 85.9342 77.5637 86.2742 77.5637 86.6742C77.5637 87.0609 77.5503 87.4542 77.5237 87.8542C77.5103 88.2542 77.4903 88.6142 77.4637 88.9342C77.4903 89.1476 77.497 89.4076 77.4837 89.7142C77.4837 90.0209 77.497 90.2742 77.5237 90.4742C77.537 90.5676 77.5437 90.6942 77.5437 90.8542C77.557 91.0009 77.5637 91.1409 77.5637 91.2742C77.5637 91.4076 77.5503 91.5142 77.5237 91.5942C77.497 91.6876 77.4837 91.8076 77.4837 91.9542C77.4837 92.0876 77.4837 92.2942 77.4837 92.5742C77.497 92.8409 77.5103 93.2342 77.5237 93.7542C77.5103 94.1676 77.4903 94.4209 77.4637 94.5142C77.4503 94.5942 77.4903 94.6009 77.5837 94.5342C77.677 94.3076 77.7437 94.1542 77.7837 94.0742C77.8237 93.9809 77.8637 93.8942 77.9037 93.8142C77.957 93.7209 78.037 93.5676 78.1437 93.3542C78.1703 93.3142 78.2103 93.2076 78.2637 93.0342C78.3303 92.8476 78.3837 92.6609 78.4237 92.4742C78.477 92.2876 78.497 92.1809 78.4837 92.1542C78.4837 92.1542 78.5103 92.0942 78.5637 91.9742C78.617 91.8409 78.7103 91.7276 78.8437 91.6342C78.897 91.5542 78.937 91.4942 78.9637 91.4542C78.9903 91.4009 79.0103 91.3476 79.0237 91.2942C79.0503 91.2409 79.0837 91.1809 79.1237 91.1142C79.177 91.0476 79.2437 90.9609 79.3237 90.8542C79.4437 90.6542 79.6037 90.3609 79.8037 89.9742C80.017 89.5876 80.237 89.1742 80.4637 88.7342C80.7037 88.2942 80.9303 87.8876 81.1437 87.5142C81.3703 87.1409 81.5503 86.8676 81.6837 86.6942C81.7503 86.5476 81.817 86.4209 81.8837 86.3142C81.9503 86.1942 82.0303 86.1076 82.1237 86.0542C82.1503 85.9476 82.217 85.8009 82.3237 85.6142C82.4437 85.4276 82.537 85.2409 82.6037 85.0542C82.937 84.6409 83.2037 84.3209 83.4037 84.0942C83.617 83.8542 83.7703 83.6742 83.8637 83.5542C83.9437 83.4742 84.017 83.4076 84.0837 83.3542C84.1637 83.2876 84.2303 83.2409 84.2837 83.2142C84.3503 83.1742 84.397 83.1542 84.4237 83.1542C84.5303 83.1809 84.6837 83.2742 84.8837 83.4342C85.097 83.5942 85.2837 83.7676 85.4437 83.9542C85.617 84.1276 85.6903 84.2476 85.6637 84.3142C85.6103 84.3676 85.4903 84.5342 85.3037 84.8142C85.117 85.0809 84.8703 85.3676 84.5637 85.6742C84.4437 85.8076 84.3237 86.0009 84.2037 86.2542C84.0837 86.4942 83.9503 86.7076 83.8037 86.8942C83.7103 87.0809 83.577 87.3009 83.4037 87.5542C83.2303 87.7942 83.0903 87.9942 82.9837 88.1542C82.917 88.3142 82.837 88.4542 82.7437 88.5742C82.6503 88.6809 82.5503 88.8009 82.4437 88.9342C82.4703 89.0276 82.457 89.0942 82.4037 89.1342C82.3503 89.1742 82.3103 89.2209 82.2837 89.2742C82.1237 89.6342 82.0037 89.8876 81.9237 90.0342C81.8437 90.1809 81.7303 90.3476 81.5837 90.5342C81.5303 90.6276 81.457 90.7409 81.3637 90.8742C81.2703 90.9942 81.197 91.1342 81.1437 91.2942C81.0503 91.3876 80.9837 91.4676 80.9437 91.5342C80.9037 91.5876 80.8903 91.6476 80.9037 91.7142C80.9037 91.7142 80.8637 91.7876 80.7837 91.9342C80.7037 92.0809 80.6303 92.2676 80.5637 92.4942C80.4703 92.6409 80.3703 92.7942 80.2637 92.9542C80.157 93.1142 80.077 93.2676 80.0237 93.4142C79.9837 93.4809 79.9303 93.5476 79.8637 93.6142C79.797 93.6676 79.7637 93.7209 79.7637 93.7742C79.7103 93.8276 79.6437 93.9342 79.5637 94.0942C79.4837 94.2409 79.397 94.4209 79.3037 94.6342C79.1837 94.7942 79.0503 95.0342 78.9037 95.3542C78.757 95.6609 78.6303 95.8942 78.5237 96.0542C78.457 96.2276 78.3637 96.4209 78.2437 96.6342C78.1237 96.8476 78.0303 97.0076 77.9637 97.1142ZM86.8429 97.5542C86.5762 97.4876 86.2496 97.3809 85.8629 97.2342C85.4762 97.0876 85.1296 96.9276 84.8229 96.7542C84.5162 96.5809 84.3429 96.4342 84.3029 96.3142C84.3029 96.2476 84.2762 96.1942 84.2229 96.1542C84.1696 96.1009 84.1096 96.0742 84.0429 96.0742C84.0429 96.0742 84.0429 96.0676 84.0429 96.0542C84.0429 96.0409 84.0429 95.9942 84.0429 95.9142C84.0429 95.8609 84.0429 95.8076 84.0429 95.7542C84.0562 95.6876 84.0296 95.6342 83.9629 95.5942C83.8696 95.3942 83.8429 95.0676 83.8829 94.6142C83.9362 94.1609 84.0229 93.6742 84.1429 93.1542C84.2762 92.6209 84.4096 92.1609 84.5429 91.7742C84.5429 91.6542 84.5629 91.5342 84.6029 91.4142C84.6562 91.2942 84.6829 91.2009 84.6829 91.1342C84.7229 91.0142 84.7962 90.8342 84.9029 90.5942C85.0096 90.3409 85.1362 90.0676 85.2829 89.7742C85.4296 89.4676 85.5762 89.1809 85.7229 88.9142C85.8696 88.6342 86.0029 88.4209 86.1229 88.2742C86.1229 88.2076 86.1696 88.1209 86.2629 88.0142C86.3562 87.9076 86.4296 87.7609 86.4829 87.5742C86.5896 87.4676 86.7229 87.2876 86.8829 87.0342C87.0562 86.7809 87.2096 86.5476 87.3429 86.3342C87.6229 86.1076 87.7962 85.9076 87.8629 85.7342C87.9296 85.5476 87.9496 85.4009 87.9229 85.2942C87.9362 85.0942 87.9962 84.9409 88.1029 84.8342C88.2096 84.7142 88.3762 84.6142 88.6029 84.5342C88.8296 84.4542 89.1162 84.3742 89.4629 84.2942C89.8896 84.1342 90.3229 84.0209 90.7629 83.9542C91.2162 83.8876 91.7896 83.8476 92.4829 83.8342C92.6962 83.7809 92.8629 83.7542 92.9829 83.7542C93.1029 83.7409 93.1629 83.7342 93.1629 83.7342C93.1896 83.7076 93.3096 83.7076 93.5229 83.7342C93.7362 83.7609 93.9762 83.8209 94.2429 83.9142C94.5096 83.9942 94.7362 84.0942 94.9229 84.2142C95.1229 84.3342 95.2162 84.4742 95.2029 84.6342C95.2029 84.7142 95.0562 84.8076 94.7629 84.9142C94.4696 85.0076 94.1296 85.1009 93.7429 85.1942C93.3562 85.2742 93.0162 85.3342 92.7229 85.3742C92.1229 85.4409 91.6229 85.5009 91.2229 85.5542C90.8229 85.6076 90.4829 85.6942 90.2029 85.8142C89.9362 85.9209 89.6829 86.0942 89.4429 86.3342C89.2162 86.5742 88.9562 86.9209 88.6629 87.3742C88.3962 87.8009 88.2029 88.1476 88.0829 88.4142C87.9629 88.6676 87.9162 88.8542 87.9429 88.9742C87.9829 89.0942 88.0762 89.1542 88.2229 89.1542C88.3829 89.1542 88.5829 89.1409 88.8229 89.1142C89.0629 89.0742 89.2229 89.0542 89.3029 89.0542C89.3029 89.0542 89.4229 89.0142 89.6629 88.9342C89.9162 88.8409 90.2296 88.7676 90.6029 88.7142C91.0296 88.6342 91.3162 88.5742 91.4629 88.5342C91.6229 88.4809 91.7762 88.4476 91.9229 88.4342C92.3762 88.3942 92.6496 88.4742 92.7429 88.6742C92.8362 88.8742 92.7962 89.1009 92.6229 89.3542C92.4629 89.6076 92.2162 89.8009 91.8829 89.9342C91.7496 89.9876 91.5829 90.0476 91.3829 90.1142C91.1829 90.1809 90.9962 90.2409 90.8229 90.2942C90.6496 90.3342 90.5362 90.3542 90.4829 90.3542C90.4829 90.3542 90.4296 90.3676 90.3229 90.3942C90.2296 90.4076 90.0962 90.4142 89.9229 90.4142C89.8829 90.4142 89.6896 90.4409 89.3429 90.4942C88.9962 90.5342 88.6696 90.5742 88.3629 90.6142C87.8962 90.7342 87.5429 90.8342 87.3029 90.9142C87.0762 90.9809 86.9096 91.0742 86.8029 91.1942C86.6962 91.3142 86.5896 91.5076 86.4829 91.7742C86.3629 92.0676 86.2562 92.4076 86.1629 92.7942C86.0696 93.1676 85.9962 93.5409 85.9429 93.9142C85.9029 94.2876 85.8896 94.6142 85.9029 94.8942C85.9296 95.1609 85.9896 95.3409 86.0829 95.4342C86.3229 95.6876 86.6429 95.8476 87.0429 95.9142C87.4429 95.9676 87.8562 95.9409 88.2829 95.8342C88.7229 95.7276 89.1029 95.5742 89.4229 95.3742C89.5296 95.2942 89.6562 95.2142 89.8029 95.1342C89.9629 95.0409 90.1162 94.9676 90.2629 94.9142C90.4362 94.8076 90.5696 94.7742 90.6629 94.8142C90.7696 94.8542 90.9496 94.9676 91.2029 95.1542C91.4296 95.4742 91.4162 95.7809 91.1629 96.0742C90.9229 96.3542 90.4296 96.6542 89.6829 96.9742C88.9896 97.2276 88.4362 97.3942 88.0229 97.4742C87.6229 97.5542 87.2296 97.5809 86.8429 97.5542Z" fill="black"/>
<path d="M26.4487 20.44C25.8753 20.0667 25.5353 19.6933 25.4287 19.32C25.3353 18.9467 25.4687 18.6467 25.8287 18.42C25.9087 18.3667 26.062 18.36 26.2887 18.4C26.5287 18.44 26.7087 18.52 26.8287 18.64C27.0953 18.88 27.3953 19.0267 27.7287 19.08C28.0753 19.1467 28.4953 19.1133 28.9887 18.98C29.5487 18.8067 29.9753 18.5933 30.2687 18.34C30.5753 18.0733 30.9153 17.7133 31.2887 17.26C31.5687 16.9 31.762 16.5467 31.8687 16.2C31.9887 15.8533 32.042 15.54 32.0287 15.26C32.0287 14.9667 31.962 14.7467 31.8287 14.6C31.4953 14.1333 31.082 13.8133 30.5887 13.64C30.0953 13.4533 29.4487 13.4667 28.6487 13.68C28.5553 13.6933 28.4153 13.72 28.2287 13.76C28.042 13.8 27.8753 13.84 27.7287 13.88C27.582 13.9067 27.502 13.92 27.4887 13.92C27.3953 13.9467 27.322 13.96 27.2687 13.96C27.2153 13.96 27.1487 14.0267 27.0687 14.16C27.002 14.28 26.8953 14.54 26.7487 14.94C26.602 15.3267 26.382 15.9267 26.0887 16.74C25.8087 17.5533 25.5687 18.1333 25.3687 18.48C25.182 18.8133 25.0153 18.9667 24.8687 18.94C24.722 18.9 24.5553 18.7533 24.3687 18.5C24.262 18.3133 24.142 18.1067 24.0087 17.88C23.8887 17.6533 23.8953 17.42 24.0287 17.18C24.0953 17.06 24.1487 16.9533 24.1887 16.86C24.2287 16.7533 24.282 16.5733 24.3487 16.32C24.4153 16.12 24.542 15.7733 24.7287 15.28C24.9287 14.7733 25.162 14.1867 25.4287 13.52C25.6953 12.84 25.9753 12.14 26.2687 11.42C26.562 10.7 26.842 10.02 27.1087 9.38C27.3887 8.74 27.622 8.2 27.8087 7.76C27.9953 7.34667 28.1087 7.04667 28.1487 6.86C28.1887 6.67333 28.1753 6.57333 28.1087 6.56C28.1087 6.49333 28.0887 6.43333 28.0487 6.38C28.0087 6.31333 27.9953 6.25333 28.0087 6.2C28.0087 6.14667 28.122 6.07333 28.3487 5.98C28.5887 5.88667 28.842 5.8 29.1087 5.72C29.3753 5.64 29.5687 5.61333 29.6887 5.64C29.7553 5.64 29.8353 5.64 29.9287 5.64C30.022 5.62667 30.0687 5.59333 30.0687 5.54C30.1087 5.54 30.2353 5.52667 30.4487 5.5C30.662 5.47333 30.8953 5.47333 31.1487 5.5C32.042 5.58 32.7753 5.84 33.3487 6.28C33.922 6.70667 34.202 7.39333 34.1887 8.34C34.1753 8.56667 34.082 8.86 33.9087 9.22C33.7353 9.58 33.5153 9.94 33.2487 10.3C32.9953 10.66 32.722 10.9733 32.4287 11.24C32.2553 11.3867 32.0687 11.54 31.8687 11.7C31.682 11.8467 31.5153 11.9733 31.3687 12.08C31.2353 12.1733 31.1687 12.22 31.1687 12.22C31.1687 12.22 31.222 12.24 31.3287 12.28C31.4353 12.32 31.5487 12.36 31.6687 12.4C32.282 12.6267 32.762 12.9133 33.1087 13.26C33.4687 13.6067 33.722 14.0867 33.8687 14.7C33.922 14.9 33.922 15.1467 33.8687 15.44C33.8287 15.7333 33.7687 16.0267 33.6887 16.32C33.6087 16.6 33.522 16.84 33.4287 17.04C33.3353 17.1333 33.262 17.2333 33.2087 17.34C33.1553 17.4333 33.1287 17.48 33.1287 17.48C33.1287 17.5067 33.0753 17.6133 32.9687 17.8C32.862 17.9733 32.7353 18.1667 32.5887 18.38C32.442 18.5933 32.302 18.78 32.1687 18.94C32.0353 19.0467 31.842 19.1933 31.5887 19.38C31.3487 19.58 31.082 19.7733 30.7887 19.96C30.5087 20.1467 30.242 20.2867 29.9887 20.38C29.6153 20.54 29.1953 20.6467 28.7287 20.7C28.2753 20.7667 27.842 20.7733 27.4287 20.72C27.0153 20.68 26.6887 20.5867 26.4487 20.44ZM27.8887 12.14C27.8887 12.14 27.9953 12.12 28.2087 12.08C28.4353 12.0267 28.682 11.9733 28.9487 11.92C29.2153 11.8533 29.4153 11.7933 29.5487 11.74C29.6153 11.7 29.7087 11.6467 29.8287 11.58C29.962 11.5133 30.0953 11.4133 30.2287 11.28C30.4153 11.1067 30.6153 10.9133 30.8287 10.7C31.042 10.4733 31.2487 10.2333 31.4487 9.98C31.662 9.72667 31.842 9.45333 31.9887 9.16C32.2953 8.68 32.462 8.33333 32.4887 8.12C32.5153 7.90667 32.442 7.71333 32.2687 7.54C32.1487 7.39333 31.982 7.28667 31.7687 7.22C31.5553 7.14 31.322 7.1 31.0687 7.1C30.8287 7.08667 30.5953 7.11333 30.3687 7.18C30.1953 7.23333 30.062 7.3 29.9687 7.38C29.8753 7.44667 29.8287 7.55333 29.8287 7.7C29.8287 7.82 29.7887 7.94667 29.7087 8.08C29.642 8.2 29.5753 8.29333 29.5087 8.36C29.4953 8.45333 29.4487 8.54667 29.3687 8.64C29.302 8.72 29.2687 8.76 29.2687 8.76C29.2687 8.81333 29.182 8.98 29.0087 9.26C28.8487 9.52667 28.6753 9.91333 28.4887 10.42C28.2487 10.9933 28.0887 11.4067 28.0087 11.66C27.9287 11.9133 27.8887 12.0733 27.8887 12.14ZM34.0774 19.66C33.8374 19.5267 33.7041 19.38 33.6774 19.22C33.6641 19.06 33.7574 18.78 33.9574 18.38C34.1574 17.98 34.4708 17.36 34.8974 16.52C35.2174 15.92 35.4308 15.4533 35.5374 15.12C35.6574 14.7733 35.7241 14.5267 35.7374 14.38C35.7508 14.2333 35.7574 14.14 35.7574 14.1C35.7308 13.98 35.7441 13.8867 35.7974 13.82C35.8508 13.74 35.9374 13.6733 36.0574 13.62C36.1241 13.5533 36.2774 13.4333 36.5174 13.26C36.7574 13.0867 36.9441 12.88 37.0774 12.64C37.1974 12.36 37.3308 12.0733 37.4774 11.78C37.6374 11.4867 37.8441 11.12 38.0974 10.68C38.3508 10.2267 38.6908 9.64 39.1174 8.92C39.3841 8.45333 39.6974 7.92667 40.0574 7.34C40.4308 6.75333 40.7974 6.22 41.1574 5.74C41.3041 5.55333 41.4574 5.40667 41.6174 5.3C41.7774 5.19333 41.9174 5.14 42.0374 5.14C42.3308 5.14 42.6241 5.22 42.9174 5.38C43.2108 5.52667 43.4708 5.71333 43.6974 5.94C43.9241 6.16667 44.0774 6.38 44.1574 6.58C44.2241 6.68667 44.2508 6.91333 44.2374 7.26C44.2241 7.60667 44.1974 8.02667 44.1574 8.52C44.1174 9.01333 44.0708 9.54 44.0174 10.1C43.9774 10.6467 43.9174 11.2933 43.8374 12.04C43.7574 12.7867 43.6774 13.5667 43.5974 14.38C43.5308 15.1933 43.4774 15.98 43.4374 16.74C43.3974 17.4867 43.3974 18.14 43.4374 18.7C43.4508 18.82 43.4508 18.9333 43.4374 19.04C43.4241 19.1467 43.4174 19.2333 43.4174 19.3C43.3374 19.38 43.1641 19.4133 42.8974 19.4C42.6308 19.4 42.3708 19.36 42.1174 19.28C41.8641 19.2 41.7241 19.1 41.6974 18.98C41.6574 18.94 41.6308 18.9067 41.6174 18.88C41.6041 18.8533 41.6041 18.7267 41.6174 18.5C41.6308 18.26 41.6508 17.8267 41.6774 17.2L41.7774 14.14L41.5174 14.16C41.3974 14.16 41.1774 14.1733 40.8574 14.2C40.5508 14.2267 40.2108 14.2667 39.8374 14.32C39.4774 14.36 39.1441 14.4067 38.8374 14.46C38.5308 14.5 38.3174 14.54 38.1974 14.58C38.0774 14.58 37.9308 14.66 37.7574 14.82C37.5974 14.98 37.4441 15.1867 37.2974 15.44C37.2441 15.6267 37.1441 15.8267 36.9974 16.04C36.8641 16.24 36.7974 16.3733 36.7974 16.44C36.7041 16.5067 36.6241 16.5867 36.5574 16.68C36.5041 16.7733 36.4774 16.82 36.4774 16.82C36.4774 16.9 36.4174 17.1 36.2974 17.42C36.1774 17.7267 36.0308 18.0733 35.8574 18.46C35.6841 18.8333 35.5041 19.16 35.3174 19.44L34.7774 20.2L34.0774 19.66ZM38.8574 12.78C38.8574 12.78 38.9308 12.7667 39.0774 12.74C39.2241 12.7133 39.3974 12.6867 39.5974 12.66C39.8108 12.62 39.9974 12.6 40.1574 12.6C40.4641 12.52 40.7174 12.46 40.9174 12.42C41.1308 12.38 41.3041 12.36 41.4374 12.36C41.5708 12.3467 41.6774 12.36 41.7574 12.4C41.8108 12.4667 41.8574 12.5067 41.8974 12.52C41.9508 12.5333 41.9774 12.54 41.9774 12.54C41.9908 12.5133 42.0174 12.3733 42.0574 12.12C42.0974 11.8667 42.1441 11.5533 42.1974 11.18C42.2508 10.8067 42.3041 10.42 42.3574 10.02C42.4108 9.60667 42.4574 9.22667 42.4974 8.88C42.5374 8.52 42.5641 8.24 42.5774 8.04C42.5908 7.78667 42.5841 7.56 42.5574 7.36C42.5308 7.14667 42.5174 7.04 42.5174 7.04C42.4374 7.04 42.2841 7.18667 42.0574 7.48C41.8441 7.76 41.5908 8.14 41.2974 8.62C41.0174 9.08667 40.7374 9.59333 40.4574 10.14C40.3241 10.3933 40.1974 10.5933 40.0774 10.74C39.9708 10.8867 39.8841 10.96 39.8174 10.96C39.7908 10.9867 39.7174 11.0933 39.5974 11.28C39.4908 11.4533 39.3708 11.6533 39.2374 11.88C39.1174 12.0933 39.0108 12.2933 38.9174 12.48C38.8374 12.6533 38.8174 12.7533 38.8574 12.78ZM53.8523 19.98C53.7989 19.98 53.6789 19.9667 53.4923 19.94C53.3056 19.9267 53.0856 19.8867 52.8323 19.82C52.5923 19.7533 52.3656 19.6533 52.1523 19.52C51.9389 19.4 51.7789 19.2333 51.6723 19.02C51.5789 18.9 51.4323 18.7333 51.2323 18.52C51.0323 18.3067 50.8589 18.1133 50.7123 17.94C50.2189 17.4467 49.8256 17.06 49.5323 16.78C49.2523 16.5 49.0123 16.2133 48.8123 15.92C48.6523 15.76 48.5123 15.5733 48.3923 15.36C48.2723 15.1333 48.1589 14.9333 48.0523 14.76C47.9589 14.5733 47.8589 14.4667 47.7523 14.44C47.6856 14.4933 47.6256 14.5733 47.5723 14.68C47.5189 14.7867 47.4723 14.9533 47.4323 15.18C47.3389 15.38 47.2523 15.6267 47.1723 15.92C47.0923 16.2133 47.0323 16.44 46.9923 16.6C46.8856 16.84 46.7989 17.08 46.7323 17.32C46.6789 17.5467 46.6256 17.7467 46.5723 17.92C46.5189 18.0933 46.4656 18.2333 46.4123 18.34C46.3723 18.4467 46.3256 18.5267 46.2723 18.58C46.2723 18.58 46.2523 18.6733 46.2123 18.86C46.1723 19.0333 46.1323 19.2 46.0923 19.36C45.9589 20.0133 45.7856 20.3467 45.5723 20.36C45.3723 20.3867 45.0989 20.2533 44.7523 19.96C44.6589 19.7867 44.5456 19.6133 44.4123 19.44C44.2789 19.2667 44.2123 19.1533 44.2123 19.1C44.2123 19.1 44.2523 18.9867 44.3323 18.76C44.4123 18.52 44.4989 18.24 44.5923 17.92C44.6589 17.6933 44.7523 17.4 44.8723 17.04C45.0056 16.6667 45.1389 16.2733 45.2723 15.86C45.4056 15.4333 45.5323 15.0267 45.6523 14.64C45.7723 14.24 45.8656 13.9 45.9323 13.62C45.9856 13.5667 46.0123 13.5133 46.0123 13.46C46.0256 13.4067 46.0323 13.3333 46.0323 13.24C46.0589 13.16 46.1256 12.9733 46.2323 12.68C46.3389 12.3733 46.4656 12.0333 46.6123 11.66C46.7589 11.2733 46.8989 10.9133 47.0323 10.58C47.1789 10.2333 47.2989 9.98667 47.3923 9.84C47.4456 9.73333 47.4723 9.64 47.4723 9.56C47.4856 9.48 47.4923 9.44 47.4923 9.44C47.4923 9.32 47.5523 9.24667 47.6723 9.22C47.6723 9.15333 47.6723 9.08667 47.6723 9.02C47.6856 8.95333 47.7189 8.89333 47.7723 8.84C47.8123 8.73333 47.8923 8.52667 48.0123 8.22C48.1323 7.91333 48.2523 7.58 48.3723 7.22C48.5056 6.84667 48.6189 6.52 48.7123 6.24C48.8056 5.96 48.8523 5.80667 48.8523 5.78C48.8523 5.71333 48.8723 5.66 48.9123 5.62C48.9523 5.56667 48.9923 5.51333 49.0323 5.46C49.1656 5.35333 49.3456 5.30667 49.5723 5.32C49.7989 5.32 50.0256 5.36667 50.2523 5.46C50.4923 5.55333 50.6656 5.68667 50.7723 5.86C50.7723 5.91333 50.7523 6.03333 50.7123 6.22C50.6723 6.40667 50.6056 6.61333 50.5123 6.84C50.4189 7.06667 50.3323 7.26667 50.2523 7.44C50.1723 7.61333 50.1323 7.7 50.1323 7.7C50.1323 7.7 50.0723 7.88667 49.9523 8.26C49.8323 8.62 49.6589 9.1 49.4323 9.7C49.1656 10.2467 48.9456 10.74 48.7723 11.18C48.6123 11.6067 48.5589 11.8467 48.6123 11.9C48.6123 11.9 48.7723 11.7667 49.0923 11.5C49.4256 11.22 49.8056 10.8733 50.2323 10.46C50.5789 10.1133 50.9323 9.78 51.2923 9.46C51.6656 9.12667 52.0656 8.80667 52.4923 8.5C53.1056 8.08667 53.5656 7.78 53.8723 7.58C54.1923 7.36667 54.4323 7.22667 54.5923 7.16C54.7523 7.08 54.9056 7.04 55.0523 7.04C55.2256 6.97333 55.3389 6.96667 55.3923 7.02C55.4456 7.06 55.5523 7.12667 55.7123 7.22C55.7656 7.31333 55.8123 7.47333 55.8523 7.7C55.9056 7.91333 55.9323 8.02 55.9323 8.02C55.9456 8.15333 55.8723 8.31333 55.7123 8.5C55.5523 8.68667 55.3189 8.86 55.0123 9.02C54.6789 9.23333 54.2723 9.49333 53.7923 9.8C53.3256 10.1067 52.8456 10.44 52.3523 10.8C51.8589 11.1467 51.3923 11.4933 50.9523 11.84C50.5123 12.1733 50.1389 12.4733 49.8323 12.74C49.5389 13.0067 49.3656 13.2133 49.3123 13.36C49.2189 13.4533 49.2189 13.5467 49.3123 13.64C49.4189 13.7333 49.5989 13.9 49.8523 14.14C50.0389 14.3667 50.1856 14.5533 50.2923 14.7C50.3989 14.8333 50.4523 14.9 50.4523 14.9C50.4523 14.9267 50.5256 15.02 50.6723 15.18C50.8189 15.34 50.9923 15.52 51.1923 15.72C51.4056 15.92 51.5989 16.1067 51.7723 16.28C51.8256 16.4133 51.9723 16.6 52.2123 16.84C52.4523 17.0667 52.6789 17.3467 52.8923 17.68C53.5323 18.3467 53.9389 18.8933 54.1123 19.32C54.2856 19.7467 54.1989 19.9667 53.8523 19.98ZM59.2202 20C58.6869 20 58.2069 19.9667 57.7802 19.9C57.3669 19.8467 56.9869 19.6867 56.6402 19.42C56.2269 19.1133 55.9336 18.6733 55.7602 18.1C55.6002 17.5133 55.6469 16.7467 55.9002 15.8C55.9669 15.4667 56.0402 15.1733 56.1202 14.92C56.2136 14.6667 56.2936 14.54 56.3602 14.54C56.3736 14.4733 56.3936 14.38 56.4202 14.26C56.4469 14.1267 56.4736 13.9733 56.5002 13.8C56.5669 13.56 56.6136 13.3867 56.6402 13.28C56.6669 13.16 56.7202 13.06 56.8002 12.98C56.8402 12.9533 56.8869 12.8667 56.9402 12.72C56.9936 12.56 57.0269 12.4667 57.0402 12.44C57.0402 12.44 57.0469 12.3933 57.0602 12.3C57.0736 12.1933 57.1069 12.0733 57.1602 11.94C57.3602 11.6067 57.4602 11.3867 57.4602 11.28C57.4869 11.2267 57.5402 11.1467 57.6202 11.04C57.7136 10.9333 57.7869 10.7933 57.8402 10.62C58.2402 9.91333 58.5669 9.33333 58.8202 8.88C59.0736 8.41333 59.2269 8.05333 59.2802 7.8C59.3469 7.65333 59.4069 7.48 59.4602 7.28C59.5269 7.06667 59.6069 6.90667 59.7002 6.8C59.6736 6.73333 59.7469 6.66 59.9202 6.58C60.1069 6.5 60.3469 6.41333 60.6402 6.32C60.9336 6.22667 61.2469 6.14667 61.5802 6.08C61.9136 6.01333 62.2202 5.97333 62.5002 5.96C62.5802 5.90667 62.7536 5.86667 63.0202 5.84C63.3002 5.81333 63.6202 5.8 63.9802 5.8C64.3402 5.8 64.6736 5.81333 64.9802 5.84C65.2736 5.84 65.5069 5.88 65.6802 5.96C65.8536 6.04 66.0269 6.12 66.2002 6.2C66.2669 6.26667 66.3602 6.36 66.4802 6.48C66.6002 6.6 66.6736 6.72667 66.7002 6.86C66.7402 6.99333 66.6536 7.11333 66.4402 7.22C66.4002 7.26 66.1802 7.29333 65.7802 7.32C65.3802 7.34667 64.9602 7.36 64.5202 7.36C64.0269 7.36 63.6002 7.4 63.2402 7.48C62.8802 7.56 62.6269 7.6 62.4802 7.6C62.2936 7.65333 62.0736 7.68667 61.8202 7.7C61.5669 7.71333 61.4402 7.72 61.4402 7.72C61.4136 7.72 61.3469 7.8 61.2402 7.96C61.1336 8.10667 61.0136 8.28667 60.8802 8.5C60.7602 8.7 60.6469 8.88667 60.5402 9.06C60.4469 9.23333 60.4002 9.34 60.4002 9.38C60.4002 9.51333 60.3469 9.66 60.2402 9.82C60.1336 9.98 60.0069 10.1667 59.8602 10.38C59.7269 10.5533 59.6402 10.74 59.6002 10.94C59.5602 11.1267 59.6002 11.2467 59.7202 11.3C59.9336 11.26 60.2269 11.22 60.6002 11.18C60.9869 11.14 61.3669 11.1067 61.7402 11.08C62.1136 11.04 62.4002 11.02 62.6002 11.02C62.8269 10.9533 63.0136 10.94 63.1602 10.98C63.3069 11.02 63.4136 11.06 63.4802 11.1C63.6402 11.1267 63.7336 11.2067 63.7602 11.34C63.8002 11.4733 63.8002 11.6067 63.7602 11.74C63.7202 11.8733 63.6536 11.96 63.5602 12C63.4802 12.08 63.2802 12.1733 62.9602 12.28C62.6402 12.3867 62.2602 12.4933 61.8202 12.6C61.3936 12.7067 60.9602 12.8067 60.5202 12.9C60.0936 12.98 59.7202 13.0467 59.4002 13.1C59.0936 13.1533 58.9136 13.1733 58.8602 13.16C58.7802 12.9733 58.6869 12.98 58.5802 13.18C58.4869 13.3667 58.3736 13.7533 58.2402 14.34C58.0936 14.6733 57.9802 14.9267 57.9002 15.1C57.8336 15.26 57.7802 15.44 57.7402 15.64C57.7002 15.8267 57.6402 16.1267 57.5602 16.54C57.4669 16.9 57.4736 17.2267 57.5802 17.52C57.7002 17.8 57.9736 18.04 58.4002 18.24C58.6669 18.2933 58.9736 18.3133 59.3202 18.3C59.6669 18.2867 60.1269 18.2067 60.7002 18.06C60.9402 17.9133 61.1802 17.78 61.4202 17.66C61.6602 17.5267 61.8269 17.4333 61.9202 17.38C61.9869 17.38 62.0869 17.3533 62.2202 17.3C62.3669 17.2333 62.4669 17.2 62.5202 17.2C62.6269 17.0533 62.7602 16.98 62.9202 16.98C62.9469 16.98 63.0202 17.04 63.1402 17.16C63.2736 17.28 63.4002 17.4333 63.5202 17.62C63.6402 17.8067 63.7002 18 63.7002 18.2C63.7002 18.3333 63.4736 18.5067 63.0202 18.72C62.5802 18.9333 62.0269 19.1733 61.3602 19.44C61.0269 19.5867 60.7536 19.7 60.5402 19.78C60.3402 19.86 60.1469 19.9133 59.9602 19.94C59.7736 19.98 59.5269 20 59.2202 20ZM65.973 19.62C65.8264 19.4867 65.6864 19.38 65.553 19.3C65.433 19.22 65.3464 19.1133 65.293 18.98C65.253 18.8467 65.2664 18.6467 65.333 18.38C65.3597 18.1933 65.4064 17.9467 65.473 17.64C65.553 17.32 65.633 16.98 65.713 16.62C65.8064 16.26 65.8997 15.9267 65.993 15.62C66.0864 15.3 66.1597 15.0533 66.213 14.88C66.2264 14.7733 66.2597 14.6267 66.313 14.44C66.3797 14.24 66.453 14.0733 66.533 13.94L66.753 13.26C66.793 13.1267 66.8597 12.9267 66.953 12.66C67.0597 12.3933 67.1597 12.1467 67.253 11.92C67.3464 11.68 67.393 11.56 67.393 11.56C67.5264 11.2933 67.6864 10.94 67.873 10.5C68.073 10.06 68.2797 9.6 68.493 9.12C68.7064 8.64 68.8997 8.20667 69.073 7.82C69.2597 7.43333 69.393 7.16667 69.473 7.02C69.4997 6.9 69.4797 6.82667 69.413 6.8C69.3597 6.77333 69.1397 6.74667 68.753 6.72C68.5397 6.73333 68.253 6.80667 67.893 6.94C67.5464 7.06 67.2664 7.15333 67.053 7.22C66.7864 7.3 66.6064 7.26667 66.513 7.12C66.433 6.97333 66.4264 6.78 66.493 6.54C66.573 6.3 66.713 6.07333 66.913 5.86C67.113 5.64667 67.3664 5.51333 67.673 5.46C67.8597 5.40667 68.1264 5.36 68.473 5.32C68.8197 5.28 69.1597 5.24667 69.493 5.22C69.8264 5.18 70.073 5.16 70.233 5.16C71.1664 5.13333 72.0064 5.20667 72.753 5.38C73.4997 5.55333 74.2597 5.88 75.033 6.36C75.233 6.49333 75.4397 6.68667 75.653 6.94C75.8797 7.18 76.0864 7.42 76.273 7.66C76.4597 7.9 76.5864 8.08 76.653 8.2C76.6797 8.25333 76.7397 8.36667 76.833 8.54C76.9397 8.71333 77.0264 8.91333 77.093 9.14C77.2397 9.46 77.333 9.86 77.373 10.34C77.4264 10.82 77.433 11.3067 77.393 11.8C77.3664 12.28 77.293 12.7133 77.173 13.1C76.973 13.7 76.6664 14.34 76.253 15.02C75.853 15.6867 75.3997 16.3 74.893 16.86C74.3864 17.4067 73.8864 17.8133 73.393 18.08C73.2064 18.1733 73.0264 18.26 72.853 18.34C72.6797 18.42 72.5197 18.48 72.373 18.52C72.333 18.5733 72.173 18.6667 71.893 18.8C71.613 18.9333 71.2864 19.08 70.913 19.24C70.5397 19.4 70.1864 19.5467 69.853 19.68C69.533 19.8267 69.2997 19.9333 69.153 20C69.0064 19.9867 68.8797 20 68.773 20.04C68.6797 20.0933 68.613 20.14 68.573 20.18C68.3864 20.2333 68.1864 20.2733 67.973 20.3C67.773 20.3267 67.5197 20.3333 67.213 20.32L66.353 20.36L65.973 19.62ZM68.013 18.4C68.1997 18.4133 68.433 18.3533 68.713 18.22C68.993 18.0867 69.2464 17.9733 69.473 17.88C69.6197 17.8267 69.733 17.8 69.813 17.8C69.9064 17.8 69.953 17.8 69.953 17.8C70.0064 17.8 70.1197 17.7667 70.293 17.7C70.4797 17.62 70.693 17.5267 70.933 17.42C71.173 17.3 71.413 17.1867 71.653 17.08C71.9064 16.96 72.1197 16.86 72.293 16.78C72.4397 16.62 72.6264 16.4267 72.853 16.2C73.093 15.9733 73.2664 15.7933 73.373 15.66C73.5464 15.5667 73.6864 15.4333 73.793 15.26C73.913 15.0867 74.013 14.9867 74.093 14.96C74.1597 14.96 74.253 14.8333 74.373 14.58C74.5064 14.3267 74.6597 14.0733 74.833 13.82C75.033 13.4733 75.1797 13.2 75.273 13C75.3797 12.7867 75.4464 12.5933 75.473 12.42C75.513 12.2333 75.5397 12.0133 75.553 11.76C75.5664 11.2133 75.5597 10.78 75.533 10.46C75.5064 10.14 75.453 9.86667 75.373 9.64C75.293 9.4 75.173 9.16 75.013 8.92C74.733 8.54667 74.4797 8.26667 74.253 8.08C74.0397 7.89333 73.8397 7.75333 73.653 7.66C73.4797 7.63333 73.3064 7.58667 73.133 7.52C72.9597 7.44 72.8597 7.39333 72.833 7.38C72.7797 7.28667 72.6464 7.21333 72.433 7.16C72.2197 7.09333 71.993 7.04667 71.753 7.02C71.5264 6.98 71.3464 6.96 71.213 6.96C71.173 7.01333 71.1464 7.06 71.133 7.1C71.133 7.12667 71.1197 7.23333 71.093 7.42C71.093 7.48667 71.0464 7.65333 70.953 7.92C70.8597 8.18667 70.7464 8.46 70.613 8.74C70.4797 9.02 70.353 9.20667 70.233 9.3C70.2064 9.36667 70.133 9.53333 70.013 9.8C69.9064 10.0667 69.7664 10.4067 69.593 10.82C69.433 11.2333 69.2597 11.6867 69.073 12.18C68.8864 12.66 68.713 13.1533 68.553 13.66C68.473 13.8333 68.373 13.9867 68.253 14.12C68.1464 14.24 68.093 14.3 68.093 14.3C68.0797 14.3933 68.0664 14.4867 68.053 14.58C68.0397 14.6733 68.0064 14.7667 67.953 14.86C67.8064 15.4333 67.6864 15.9267 67.593 16.34C67.4997 16.74 67.393 17.1867 67.273 17.68L67.033 18.36L68.013 18.4Z" fill="black"/>
</svg>
