<svg width="143" height="141" viewBox="0 0 143 141" fill="none" xmlns="http://www.w3.org/2000/svg">
<mask id="mask0_73_201" style="mask-type:luminance" maskUnits="userSpaceOnUse" x="34" y="31" width="88" height="79">
<path d="M34.8546 31.8883H121.62V109.296H34.8546V31.8883Z" fill="white"/>
</mask>
<g mask="url(#mask0_73_201)">
<path d="M95.9328 34.2345L95.949 34.2418L98.4354 35.0836L98.4408 35.086C99.9213 35.5867 101.141 36.4503 102.017 37.5292C102.966 37.5095 103.909 37.6639 104.788 37.9826C105.667 38.3013 106.464 38.7777 107.128 39.3821L111.792 43.5428C115.035 46.4385 117.577 49.8982 119.258 53.7071C120.94 57.5159 121.726 61.5926 121.567 65.6838L121.539 66.6732V66.6925C121.458 68.7659 120.7 70.773 119.358 72.4672C118.015 74.1614 116.147 75.4688 113.984 76.2289C111.82 76.9889 109.454 77.1685 107.178 76.7455C104.901 76.3225 102.812 75.3154 101.169 73.8479L97.02 70.1493L96.6838 70.275L96.6106 70.2992C94.7508 70.9343 92.7779 71.2654 90.7865 71.2765C90.5305 71.9688 90.1867 72.6327 89.7615 73.2552C87.6399 76.36 84.7183 78.9681 81.2395 80.863L81.2368 80.8654C80.5265 81.2544 79.7676 81.5677 78.9755 81.7991C78.9625 83.5723 78.5924 85.329 77.8828 86.9854L77.8557 87.0507L77.7201 87.3362L81.8848 91.0493C83.5306 92.5158 84.6603 94.3793 85.1349 96.4108C85.6096 98.4423 85.4085 100.553 84.5565 102.484C83.7044 104.415 82.2386 106.082 80.339 107.28C78.4395 108.477 76.1891 109.154 73.8644 109.226H73.8428L72.7311 109.25C68.1457 109.391 63.5767 108.69 59.3079 107.19C55.039 105.69 51.1615 103.423 47.9161 100.529L43.2524 96.3687C42.576 95.7763 42.043 95.0664 41.6862 94.283C41.3295 93.4995 41.1565 92.6591 41.1782 91.8137C39.9352 91.0099 38.9833 89.899 38.4396 88.6182L38.4342 88.6134L37.4852 86.3807C34.7687 79.9524 34.1381 72.9712 35.6658 66.2377L36.0129 64.6557C36.2922 63.393 36.9077 62.3093 37.7482 61.4385C37.128 60.2703 36.781 59.0017 36.7283 57.7099C36.6756 56.4182 36.9184 55.1304 37.4418 53.9251L37.4472 53.913C39.4021 49.4434 42.3752 45.3842 46.1784 41.992C49.9816 38.5998 54.5322 35.9485 59.5427 34.2055L59.5562 34.2007C60.9101 33.7328 62.3568 33.5163 63.8077 33.5646C65.2585 33.6128 66.6831 33.9248 67.9942 34.4813C69.0091 33.7134 70.2271 33.1896 71.5326 32.9597L73.3167 32.6211L73.3411 32.6186C80.8922 31.2511 88.7224 31.8111 95.9328 34.2345ZM96.5157 39.6095L94.0212 38.7629C87.7578 36.6584 80.9792 36.1746 74.4176 37.3599L72.628 37.6985C70.9741 37.9888 70.1335 39.6579 70.9469 40.9883L86.2936 65.0573C86.619 65.5895 87.1884 65.9523 87.8391 66.1216C90.0896 66.6296 92.4757 66.5329 94.6719 65.783L94.9973 65.662C95.4456 65.5126 95.8355 65.2501 96.1195 64.9065C96.4036 64.5629 96.5695 64.1531 96.5971 63.7268L98.0883 41.8592C98.1349 41.3828 98.0067 40.9058 97.7231 40.5001C97.4394 40.0943 97.0157 39.7818 96.5157 39.6095ZM61.5112 38.7145C52.8075 41.7382 45.8933 47.9067 42.5041 55.6716C41.5822 57.8003 42.5041 60.1951 44.6732 61.3804L72.9263 76.741C74.6074 77.6602 76.7223 77.6602 78.4034 76.741C81.1483 75.2476 83.4537 73.1908 85.1277 70.7419C86.1581 69.2421 86.1581 67.3553 85.1277 65.8555L67.9101 40.6497C66.5815 38.7145 63.8972 37.892 61.5112 38.7145ZM43.5073 86.9007C43.8869 87.7958 44.8901 88.3763 45.9747 88.328L70.5131 86.9733C70.9909 86.9487 71.4503 86.8007 71.8354 86.5473C72.2205 86.2939 72.5148 85.946 72.6823 85.5461L72.8178 85.2558C73.6584 83.2965 73.7668 81.1677 73.1974 79.16C73.1105 78.8713 72.9602 78.6008 72.7555 78.3641C72.5507 78.1275 72.2954 77.9293 72.0044 77.7812L45.0257 64.0897C43.5344 63.364 41.6635 64.1139 41.3381 65.5895L40.9857 67.186C39.6571 73.0399 40.1993 79.0874 42.5583 84.6753L43.5073 86.9007ZM72.0586 89.1262C71.8603 88.959 71.6256 88.8298 71.3691 88.7466C71.1126 88.6634 70.8398 88.6279 70.5673 88.6424L48.0896 90.4567C46.7068 90.5776 46.1103 92.0774 47.0864 92.9482L51.75 97.1089C57.2542 102.019 64.792 104.656 72.5738 104.414L73.6855 104.39C74.953 104.349 76.1794 103.978 77.2142 103.324C78.2491 102.67 79.0473 101.76 79.5108 100.707C79.9744 99.654 80.0832 98.5029 79.8239 97.3953C79.5645 96.2877 78.9483 95.2718 78.0509 94.4722L72.0586 89.1262ZM99.0102 65.0815L105.002 70.4274C105.899 71.2281 107.038 71.7778 108.279 72.0092C109.521 72.2406 110.811 72.1435 111.991 71.7299C113.172 71.3163 114.191 70.6042 114.925 69.681C115.658 68.7578 116.073 67.6636 116.119 66.5329L116.146 65.5411C116.418 58.5986 113.462 51.8738 107.958 46.9632L103.294 42.8026C103.074 42.6064 102.796 42.47 102.493 42.4094C102.189 42.3487 101.873 42.3664 101.58 42.4602C101.287 42.554 101.03 42.7202 100.839 42.9392C100.648 43.1583 100.531 43.4214 100.502 43.6976L98.4679 63.751C98.4408 64.2348 98.6306 64.7428 99.0102 65.0815Z" fill="white"/>
</g>
<path d="M30.1402 133.485C29.9346 133.5 29.7447 133.453 29.5707 133.342C29.4125 133.247 29.3017 133.121 29.2385 132.963C29.1752 132.883 29.0723 132.709 28.93 132.44C28.7876 132.187 28.7006 131.966 28.6689 131.776C28.6215 131.27 28.5898 130.779 28.574 130.305C28.574 129.83 28.5977 129.166 28.6452 128.311C28.6926 127.615 28.7876 126.998 28.93 126.46C29.0723 125.907 29.2147 125.44 29.3571 125.06C29.4995 124.665 29.6102 124.372 29.6893 124.182C29.7684 123.976 29.7843 123.874 29.7368 123.874C29.6735 123.874 29.6023 123.937 29.5232 124.063C29.4599 124.174 29.3808 124.325 29.2859 124.514C29.2068 124.704 29.1119 124.91 29.0011 125.131C28.9062 125.353 28.8034 125.566 28.6926 125.772C28.4712 126.263 28.2101 126.785 27.9095 127.338C27.6248 127.876 27.3321 128.398 27.0315 128.905C26.7309 129.411 26.4699 129.854 26.2484 130.233C26.106 130.392 25.9399 130.621 25.75 130.922C25.5602 131.206 25.3545 131.507 25.133 131.823C24.9115 132.14 24.6821 132.401 24.4448 132.607C24.0968 132.939 23.7408 133.137 23.377 133.2C23.0131 133.279 22.6729 133.239 22.3565 133.081C22.1983 133.065 22.0322 132.978 21.8582 132.82C21.6842 132.678 21.5418 132.496 21.431 132.274C21.3361 132.053 21.3124 131.847 21.3598 131.657C21.344 131.436 21.344 131.096 21.3598 130.637C21.3915 130.162 21.4389 129.648 21.5022 129.094C21.5655 128.525 21.6288 127.979 21.6921 127.457C21.7712 126.935 21.8424 126.5 21.9056 126.152C22.048 125.139 22.2379 124.103 22.4752 123.043C22.7283 121.983 22.9577 120.915 23.1634 119.839C23.2899 119.523 23.4007 119.167 23.4956 118.772C23.6063 118.36 23.7171 117.98 23.8278 117.632C23.8437 117.284 23.9702 117.071 24.2075 116.992C24.4448 116.897 24.698 116.881 24.9669 116.944C25.2517 117.008 25.4494 117.118 25.5602 117.276C25.7184 117.435 25.8687 117.68 26.0111 118.012C26.1535 118.344 26.1139 118.764 25.8924 119.27C25.576 120.045 25.2675 120.994 24.9669 122.118C24.6821 123.225 24.4211 124.57 24.1838 126.152C24.1205 126.531 24.0493 126.959 23.9702 127.433C23.9069 127.892 23.8437 128.335 23.7804 128.762C23.7329 129.189 23.6934 129.545 23.6617 129.83C23.6459 130.099 23.6538 130.241 23.6855 130.257C23.812 130.289 23.9465 130.218 24.0889 130.044C24.2471 129.87 24.4132 129.593 24.5872 129.213C25.2359 128.137 25.845 127.069 26.4145 126.009C26.9999 124.949 27.5852 123.842 28.1706 122.687C28.4395 122.228 28.7085 121.73 28.9774 121.192C29.2622 120.638 29.5311 120.132 29.7843 119.673C30.0532 119.199 30.3143 118.74 30.5674 118.297C30.8205 117.854 31.042 117.482 31.2318 117.182C31.4217 116.865 31.5641 116.691 31.659 116.659C32.0862 116.659 32.4026 116.77 32.6082 116.992C32.8297 117.213 33.0037 117.482 33.1303 117.799C33.1619 117.878 33.1778 118.012 33.1778 118.202C33.1936 118.392 33.1699 118.558 33.1066 118.7C33.0908 118.811 33.0196 119.04 32.893 119.389C32.7823 119.737 32.6794 120.124 32.5845 120.551C32.4263 120.978 32.2839 121.406 32.1573 121.833C32.0466 122.244 31.9675 122.584 31.92 122.853C31.7935 123.534 31.6353 124.277 31.4454 125.084C31.2556 125.891 31.0895 126.698 30.9471 127.504C30.8205 128.295 30.7493 128.999 30.7335 129.616C30.7177 130.059 30.7177 130.352 30.7335 130.495C30.7651 130.621 30.8126 130.756 30.8759 130.898C30.9075 131.025 30.9787 131.056 31.0895 130.993C31.2002 130.93 31.3109 130.819 31.4217 130.661C31.6432 130.328 31.8093 130.044 31.92 129.806C32.0466 129.569 32.1732 129.316 32.2997 129.047C32.4263 128.762 32.6003 128.406 32.8218 127.979C33.2173 127.251 33.6207 126.452 34.0321 125.582C34.4592 124.712 34.8627 123.85 35.2423 122.996C35.6379 122.141 35.978 121.382 36.2628 120.717C36.5634 119.863 36.8165 119.175 37.0222 118.653C37.2278 118.115 37.4177 117.704 37.5917 117.419C37.7657 117.134 37.9318 116.944 38.09 116.849C38.1691 116.786 38.3353 116.754 38.5884 116.754C38.8573 116.754 39.063 116.818 39.2054 116.944C39.2687 117.008 39.3794 117.11 39.5376 117.253C39.6958 117.395 39.767 117.561 39.7512 117.751C39.6721 118.004 39.5218 118.416 39.3003 118.985C39.0946 119.555 38.8494 120.187 38.5647 120.884C38.2957 121.564 38.0268 122.22 37.7578 122.853C37.5047 123.47 37.2911 123.961 37.1171 124.325C36.9431 124.657 36.7769 124.942 36.6187 125.179C36.4605 125.416 36.3814 125.598 36.3814 125.725C36.3814 125.788 36.3023 125.986 36.1441 126.318C35.9859 126.634 35.7802 127.022 35.5271 127.481C35.2898 127.94 35.0288 128.414 34.744 128.905C34.4592 129.395 34.1903 129.846 33.9372 130.257C33.684 130.669 33.4704 130.985 33.2964 131.206C32.9009 131.697 32.4738 132.108 32.015 132.44C31.572 132.789 31.1765 133.05 30.8284 133.224C30.4804 133.398 30.251 133.485 30.1402 133.485ZM39.8103 132.986C39.6996 132.812 39.5098 132.701 39.2408 132.654C38.9719 132.607 38.5605 132.599 38.0068 132.63C37.7853 132.662 37.5559 132.646 37.3186 132.583C37.0813 132.52 36.8915 132.425 36.7491 132.298C36.6067 132.172 36.5513 132.045 36.583 131.918C36.5988 131.729 36.8203 131.523 37.2474 131.301C37.6746 131.08 38.2283 130.961 38.9086 130.945L39.9053 130.922L40.1426 130.447C40.2059 130.273 40.2533 130.083 40.285 129.878C40.3324 129.672 40.4115 129.387 40.5223 129.023C40.5855 128.802 40.6805 128.493 40.807 128.098C40.9336 127.702 41.0681 127.283 41.2105 126.84C41.3528 126.381 41.4794 125.97 41.5902 125.606C41.7009 125.242 41.7721 124.989 41.8037 124.847C41.867 124.704 41.954 124.467 42.0648 124.135C42.1755 123.787 42.2783 123.439 42.3733 123.091C42.484 122.727 42.5552 122.466 42.5868 122.307C42.9982 121.058 43.2671 120.187 43.3937 119.697C43.5203 119.191 43.5519 118.93 43.4886 118.914C43.4253 118.914 43.275 118.922 43.0377 118.938C42.8004 118.953 42.5394 118.977 42.2546 119.009C41.9698 119.025 41.7167 119.048 41.4952 119.08C41.2737 119.112 41.1393 119.143 41.0918 119.175C41.0127 119.286 40.8782 119.27 40.6884 119.127C40.4985 118.969 40.3799 118.811 40.3324 118.653C40.3166 118.51 40.3166 118.376 40.3324 118.249C40.3482 118.123 40.3957 118.036 40.4748 117.988C40.5855 117.893 40.8149 117.791 41.163 117.68C41.511 117.553 41.8987 117.443 42.3258 117.348C42.7688 117.253 43.1722 117.182 43.5361 117.134C43.805 117.102 44.074 117.047 44.3429 116.968C44.6119 116.873 44.8254 116.762 44.9837 116.636C45.126 116.588 45.2605 116.549 45.3871 116.517C45.5295 116.485 45.6718 116.478 45.8142 116.493C45.9408 116.572 46.1544 116.612 46.455 116.612C46.7714 116.612 47.1036 116.604 47.4517 116.588C48.3376 116.509 48.9546 116.541 49.3027 116.683C49.6665 116.81 49.9038 116.984 50.0146 117.205C50.0937 117.506 50.0779 117.759 49.9671 117.965C49.8564 118.155 49.6665 118.242 49.3976 118.226C49.2552 118.257 49.0574 118.289 48.8043 118.321C48.5512 118.336 48.219 118.352 47.8076 118.368C46.7635 118.463 46.2018 118.574 46.1227 118.7C46.0594 118.764 46.0041 118.827 45.9566 118.89C45.925 118.953 45.8775 119.025 45.8142 119.104C45.8301 119.167 45.7905 119.357 45.6956 119.673C45.6165 119.974 45.5136 120.298 45.3871 120.646C45.3238 120.852 45.2289 121.145 45.1023 121.524C44.9757 121.904 44.8413 122.3 44.6989 122.711C44.5723 123.106 44.4537 123.47 44.3429 123.802C44.2322 124.119 44.1531 124.332 44.1056 124.443C44.0423 124.586 43.987 124.744 43.9395 124.918C43.9079 125.076 43.8841 125.195 43.8683 125.274C43.6468 126.049 43.457 126.698 43.2988 127.22C43.1564 127.742 43.0298 128.201 42.9191 128.596C42.8083 128.976 42.7055 129.348 42.6106 129.711C42.5157 130.059 42.4049 130.455 42.2783 130.898C42.2783 130.898 42.4128 130.89 42.6818 130.874C42.9507 130.843 43.2909 130.811 43.7022 130.779C44.4458 130.7 44.952 130.653 45.221 130.637C45.4899 130.621 45.6481 130.645 45.6956 130.708C45.743 130.756 45.7905 130.85 45.838 130.993C46.1544 131.42 46.1306 131.776 45.7668 132.061C45.4187 132.346 44.8017 132.48 43.9158 132.464C43.0931 132.496 42.484 132.52 42.0885 132.535C41.7088 132.567 41.4636 132.607 41.3528 132.654C41.2421 132.701 41.1867 132.781 41.1867 132.891C41.2025 133.144 41.0443 133.295 40.7121 133.342C40.3957 133.406 40.0951 133.287 39.8103 132.986ZM51.9173 133.01C51.854 133.073 51.7828 133.097 51.7037 133.081C51.6246 133.081 51.4981 133.042 51.324 132.963C51.0234 132.883 50.7545 132.709 50.5172 132.44C50.2957 132.172 50.2641 131.863 50.4223 131.515C50.4855 131.404 50.5647 131.167 50.6596 130.803C50.7703 130.423 50.889 129.988 51.0155 129.498C51.1421 129.007 51.2687 128.517 51.3952 128.027C51.5218 127.536 51.6325 127.109 51.7275 126.745C51.8224 126.365 51.8857 126.112 51.9173 125.986C51.9173 125.859 51.9489 125.606 52.0122 125.226C52.0913 124.847 52.1625 124.419 52.2258 123.945C52.3998 123.613 52.5185 123.249 52.5818 122.853C52.6609 122.458 52.7162 122.173 52.7479 121.999C52.8112 121.746 52.8824 121.477 52.9615 121.192C53.0564 120.907 53.1355 120.623 53.1988 120.338C53.2621 120.085 53.3253 119.824 53.3886 119.555C53.4677 119.286 53.5073 119.112 53.5073 119.033V118.653H52.6292C52.3919 118.669 52.123 118.669 51.8224 118.653C51.5218 118.637 51.1896 118.629 50.8257 118.629C50.0821 118.597 49.5838 118.526 49.3307 118.416C49.0933 118.289 48.9589 118.052 48.9272 117.704C48.8956 117.514 48.9351 117.348 49.0459 117.205C49.1566 117.047 49.4177 116.921 49.829 116.826C50.2403 116.731 50.8732 116.699 51.7275 116.731C52.3919 116.699 52.914 116.699 53.2937 116.731C53.6734 116.746 53.8949 116.754 53.9582 116.754C54.0214 116.691 54.061 116.628 54.0768 116.565C54.0926 116.501 54.1164 116.438 54.148 116.375C54.148 116.296 54.1559 116.209 54.1717 116.114C54.2034 116.003 54.2825 115.924 54.409 115.876C54.5356 115.639 54.7729 115.544 55.121 115.592C55.4848 115.623 55.7538 115.766 55.9278 116.019C55.9911 116.161 56.0069 116.311 55.9753 116.47C55.9595 116.628 56.0069 116.77 56.1177 116.897C56.1809 116.834 56.3471 116.794 56.616 116.778C56.885 116.762 57.1697 116.746 57.4703 116.731C57.8342 116.731 58.1585 116.723 58.4433 116.707C58.728 116.675 58.9258 116.659 59.0365 116.659C59.1789 116.58 59.3609 116.541 59.5824 116.541C59.8197 116.541 60.057 116.557 60.2943 116.588C60.6581 116.588 60.9113 116.683 61.0537 116.873C61.2119 117.047 61.3147 117.174 61.3622 117.253C61.3622 117.316 61.3622 117.379 61.3622 117.443C61.378 117.506 61.4175 117.569 61.4808 117.632C61.5441 117.696 61.5757 117.743 61.5757 117.775C61.5757 117.791 61.5441 117.862 61.4808 117.988C61.4175 118.052 61.3068 118.107 61.1486 118.155C60.9904 118.186 60.8164 118.202 60.6265 118.202C60.5158 118.202 60.3259 118.218 60.057 118.249C59.788 118.265 59.5586 118.273 59.3688 118.273C59.0049 118.336 58.6489 118.392 58.3009 118.439C57.9528 118.471 57.502 118.503 56.9482 118.534C56.7109 118.534 56.4894 118.55 56.2838 118.582C56.0781 118.597 55.9753 118.645 55.9753 118.724C55.912 118.724 55.825 118.89 55.7142 119.222C55.6193 119.555 55.5244 119.903 55.4295 120.267C55.3345 120.678 55.2317 121.034 55.121 121.334C55.026 121.635 54.9469 121.833 54.8837 121.928C54.9469 121.991 54.9707 122.07 54.9548 122.165C54.9548 122.26 54.9074 122.426 54.8125 122.663C54.7492 122.885 54.6859 123.059 54.6226 123.185C54.5752 123.312 54.5514 123.439 54.5514 123.565C54.5514 123.565 54.5119 123.692 54.4328 123.945C54.3695 124.182 54.3062 124.483 54.2429 124.847C54.2113 125.195 54.1638 125.487 54.1005 125.725C54.0531 125.962 53.9977 126.112 53.9344 126.176C53.9344 126.176 53.9028 126.231 53.8395 126.342C53.7762 126.437 53.7446 126.547 53.7446 126.674C53.7446 126.816 53.7129 127.054 53.6497 127.386C53.6022 127.702 53.5468 128.003 53.4835 128.288C53.4203 128.572 53.3649 128.731 53.3174 128.762C53.4756 128.794 53.4519 129.007 53.2462 129.403C53.2462 129.561 53.2225 129.719 53.175 129.878C53.1276 130.036 53.1038 130.146 53.1038 130.21C53.0089 130.51 52.8744 130.874 52.7004 131.301C52.5264 131.729 52.3603 132.108 52.2021 132.44C52.0597 132.773 51.9648 132.963 51.9173 133.01ZM67.6747 134.363C67.4691 134.284 67.2555 134.078 67.034 133.746C66.8125 133.413 66.6622 133.137 66.5831 132.915C66.6148 132.82 66.678 132.559 66.773 132.132C66.8679 131.721 66.9865 131.222 67.1289 130.637C67.2713 130.052 67.4295 129.458 67.6035 128.857C67.7776 128.24 67.9437 127.694 68.1019 127.22C68.1493 126.998 68.181 126.832 68.1968 126.721C68.2285 126.595 68.2364 126.508 68.2205 126.46C68.2205 126.397 68.1889 126.35 68.1256 126.318C68.0307 126.255 67.8013 126.183 67.4374 126.104C67.0736 126.025 66.6543 125.946 66.1797 125.867C65.7051 125.788 65.2463 125.717 64.8033 125.653C64.3762 125.574 64.0518 125.519 63.8303 125.487C63.6405 125.503 63.4348 125.479 63.2133 125.416C62.9919 125.353 62.7783 125.329 62.5726 125.345C62.3195 125.345 62.1613 125.337 62.098 125.321C62.0347 125.305 61.9793 125.258 61.9319 125.179C61.9161 125.084 61.9002 125.044 61.8844 125.06C61.8686 125.06 61.8132 125.218 61.7183 125.535C61.6234 125.851 61.4494 126.429 61.1962 127.267C60.9273 128.09 60.7295 128.754 60.603 129.261C60.4922 129.767 60.4131 130.178 60.3657 130.495C60.3182 130.811 60.2707 131.088 60.2233 131.325C60.1125 131.689 59.9939 132.077 59.8673 132.488C59.7407 132.915 59.6142 133.271 59.4876 133.556C59.3769 133.856 59.274 134.015 59.1791 134.03C59.1475 134.094 59.0209 134.094 58.7994 134.03C58.5779 133.983 58.396 133.928 58.2536 133.864C58.0163 133.69 57.8739 133.461 57.8265 133.176C57.779 132.907 57.8106 132.504 57.9214 131.966C58.0321 131.412 58.1982 130.653 58.4197 129.688C58.5463 129.055 58.6649 128.462 58.7757 127.908C58.9023 127.354 59.0209 127.03 59.1316 126.935C59.2108 126.666 59.3136 126.263 59.4401 125.725C59.5825 125.171 59.7566 124.665 59.9622 124.206C60.0888 123.731 60.2786 123.154 60.5318 122.474C60.8007 121.793 61.0855 121.097 61.3861 120.385C61.6867 119.657 61.9714 118.985 62.2404 118.368C62.5093 117.751 62.7229 117.261 62.8811 116.897C63.0077 116.786 63.0789 116.628 63.0947 116.422C63.1263 116.217 63.1501 116.058 63.1659 115.948C63.2924 115.71 63.506 115.489 63.8066 115.283C64.1072 115.062 64.3129 114.959 64.4236 114.975C64.6293 115.006 64.8349 115.125 65.0406 115.331C65.2463 115.536 65.4045 115.758 65.5152 115.995C65.6418 116.232 65.6655 116.43 65.5864 116.588C65.4757 116.699 65.3333 116.96 65.1593 117.371C65.0011 117.783 64.7638 118.384 64.4473 119.175C64.3682 119.333 64.2338 119.539 64.0439 119.792C63.8699 120.045 63.7433 120.282 63.6642 120.504C63.5535 120.678 63.4823 120.852 63.4507 121.026C63.4348 121.2 63.3874 121.327 63.3083 121.406C63.2608 121.516 63.1896 121.667 63.0947 121.857C62.9998 122.046 62.9128 122.244 62.8337 122.45C62.7546 122.64 62.6834 122.814 62.6201 122.972C62.5726 123.13 62.5568 123.225 62.5726 123.257C62.6043 123.288 62.7546 123.328 63.0235 123.375C63.2924 123.423 63.593 123.47 63.9253 123.518C64.2733 123.549 64.566 123.581 64.8033 123.613C64.8824 123.597 65.0723 123.613 65.3728 123.66C65.6893 123.692 66.0452 123.731 66.4407 123.779C66.8362 123.826 67.2001 123.874 67.5323 123.921C68.007 124.079 68.3946 124.182 68.6952 124.23C69.0116 124.277 69.1777 124.269 69.1935 124.206C69.1935 124.206 69.2251 124.119 69.2884 123.945C69.3675 123.771 69.4783 123.518 69.6207 123.185C69.6839 122.948 69.7551 122.616 69.8342 122.189C69.9292 121.746 70.0557 121.279 70.2139 120.789C70.4038 120.456 70.5699 120.093 70.7123 119.697C70.8547 119.286 70.9654 118.89 71.0445 118.51C71.1394 118.115 71.2106 117.791 71.2581 117.538C71.3688 117.063 71.5429 116.683 71.7802 116.398C72.0333 116.114 72.1994 115.908 72.2785 115.781C72.2785 115.781 72.326 115.805 72.4209 115.853C72.5316 115.884 72.6424 115.916 72.7531 115.948C73.0379 115.995 73.2594 116.129 73.4176 116.351C73.5758 116.557 73.6391 116.897 73.6074 117.371C73.5916 117.846 73.4334 118.503 73.1328 119.341C73.0695 119.547 72.9509 119.847 72.7769 120.243C72.6186 120.623 72.4684 121.01 72.326 121.406C72.1836 121.785 72.0887 122.07 72.0412 122.26C71.9146 122.655 71.8039 123.027 71.709 123.375C71.614 123.723 71.4321 124.198 71.1632 124.799C71.1473 124.847 71.179 124.918 71.2581 125.013C71.353 125.092 71.4796 125.195 71.6378 125.321C71.8593 125.448 71.9542 125.614 71.9225 125.82C71.8909 126.009 71.7881 126.176 71.614 126.318C71.44 126.46 71.2502 126.531 71.0445 126.531C70.8388 126.516 70.6885 126.555 70.5936 126.65C70.5145 126.745 70.4512 126.974 70.4038 127.338C70.2297 127.734 70.032 128.248 69.8105 128.881C69.6048 129.514 69.4071 130.17 69.2172 130.85C69.0274 131.515 68.8692 132.116 68.7426 132.654C68.6319 133.208 68.5765 133.587 68.5765 133.793C68.4658 134.125 68.3392 134.315 68.1968 134.363C68.0702 134.41 67.8962 134.41 67.6747 134.363ZM80.0487 133.461C79.4159 133.303 78.9017 132.97 78.5062 132.464C78.1265 131.974 77.818 131.38 77.5807 130.684C77.5649 130.479 77.5569 130.194 77.5569 129.83C77.5728 129.466 77.5965 129.126 77.6281 128.81C77.6598 128.493 77.6914 128.311 77.7231 128.264C77.7705 128.232 77.7942 128.137 77.7942 127.979C77.7784 127.916 77.7863 127.813 77.818 127.671C77.8654 127.512 77.9129 127.354 77.9604 127.196C78.0395 127.006 78.079 126.856 78.079 126.745C78.079 126.619 78.0711 126.524 78.0553 126.46C78.0553 126.46 78.079 126.413 78.1265 126.318C78.1739 126.207 78.2293 126.12 78.2926 126.057C78.3875 125.962 78.4271 125.867 78.4112 125.772C78.4112 125.677 78.4112 125.63 78.4112 125.63C78.3954 125.566 78.4112 125.479 78.4587 125.369C78.5062 125.258 78.5536 125.171 78.6011 125.108C78.6327 125.076 78.6723 125.013 78.7197 124.918C78.783 124.807 78.8147 124.752 78.8147 124.752C78.8147 124.704 78.8463 124.578 78.9096 124.372C78.9887 124.166 79.0757 123.945 79.1706 123.708C79.2656 123.454 79.3526 123.225 79.4317 123.019C79.5266 122.814 79.5978 122.679 79.6453 122.616V122.568C79.7085 122.41 79.7955 122.244 79.9063 122.07C79.9221 121.991 79.9617 121.864 80.0249 121.69C80.0882 121.501 80.1594 121.319 80.2385 121.145C80.4125 120.765 80.6261 120.338 80.8793 119.863C81.1482 119.373 81.433 118.89 81.7336 118.416C82.0341 117.925 82.3189 117.49 82.5879 117.11C82.8726 116.715 83.1179 116.422 83.3235 116.232C83.5925 115.932 83.8614 115.718 84.1304 115.592C84.4151 115.449 84.6762 115.497 84.9135 115.734C85.0242 115.845 85.1192 116.011 85.1983 116.232C85.2774 116.438 85.309 116.636 85.2932 116.826C85.2932 117 85.2299 117.095 85.1033 117.11C84.9926 117.174 84.8423 117.356 84.6524 117.656C84.4626 117.941 84.249 118.281 84.0117 118.677C83.7902 119.072 83.5687 119.483 83.3473 119.911C83.1258 120.322 82.9201 120.694 82.7303 121.026C82.5246 121.485 82.3347 121.888 82.1607 122.236C81.9867 122.568 81.8997 122.735 81.8997 122.735C81.8839 122.782 81.868 122.822 81.8522 122.853C81.8364 122.885 81.8206 122.917 81.8048 122.948C81.5674 123.439 81.3697 123.889 81.2115 124.301C81.0533 124.696 80.8951 125.116 80.7369 125.559C80.6419 125.669 80.5866 125.78 80.5708 125.891C80.5549 126.002 80.547 126.057 80.547 126.057C80.5154 126.041 80.4916 126.081 80.4758 126.176C80.46 126.255 80.4284 126.35 80.3809 126.46C80.3018 126.524 80.2543 126.626 80.2385 126.769C80.2227 126.895 80.2148 127.022 80.2148 127.148C80.104 127.433 80.0012 127.781 79.9063 128.193C79.8114 128.588 79.7402 128.976 79.6927 129.355C79.6611 129.719 79.6532 130.004 79.669 130.21C79.7006 130.479 79.7718 130.708 79.8826 130.898C80.0091 131.072 80.1831 131.214 80.4046 131.325C80.5787 131.404 80.7369 131.475 80.8793 131.539C81.0216 131.586 81.1482 131.61 81.2589 131.61C81.3855 131.626 81.5437 131.626 81.7336 131.61C81.9392 131.578 82.2161 131.531 82.5641 131.467H82.5404C82.7461 131.436 82.9597 131.396 83.1811 131.349C83.4184 131.286 83.6399 131.23 83.8456 131.183C84.0354 131.151 84.2174 131.119 84.3914 131.088C84.5654 131.04 84.6999 131.001 84.7948 130.969C85.1429 130.874 85.4197 130.795 85.6254 130.732C85.8469 130.669 85.9972 130.669 86.0763 130.732C86.1554 130.795 86.2424 130.914 86.3373 131.088C86.4323 131.262 86.456 131.42 86.4085 131.562C86.3769 131.642 86.2187 131.8 85.9339 132.037C85.6491 132.29 85.3248 132.535 84.9609 132.773C84.5971 133.026 84.2648 133.2 83.9643 133.295C83.6478 133.437 83.2207 133.532 82.6828 133.58C82.1607 133.643 81.6545 133.659 81.164 133.627C80.6736 133.595 80.3018 133.54 80.0487 133.461ZM89.9146 132.227C89.0919 131.926 88.4512 131.333 87.9924 130.447C87.5336 129.545 87.407 128.493 87.6127 127.291C87.6443 126.832 87.7155 126.421 87.8262 126.057C87.9528 125.693 88.0477 125.329 88.111 124.965C88.111 124.934 88.1268 124.886 88.1585 124.823C88.1901 124.744 88.198 124.673 88.1822 124.609C88.2139 124.514 88.285 124.34 88.3958 124.087C88.5065 123.818 88.6173 123.565 88.728 123.328C88.8388 123.075 88.91 122.932 88.9416 122.901C89.0207 122.869 89.0603 122.829 89.0603 122.782C89.0603 122.719 89.0603 122.687 89.0603 122.687C89.0603 122.561 89.1473 122.331 89.3213 121.999C89.4953 121.667 89.7168 121.303 89.9858 120.907C90.2705 120.496 90.5553 120.1 90.8401 119.721C91.1248 119.341 91.378 119.025 91.5994 118.772C91.8209 118.518 91.9633 118.392 92.0266 118.392C92.0741 118.392 92.1136 118.36 92.1453 118.297C92.1769 118.234 92.2085 118.194 92.2402 118.178C92.2876 118.115 92.43 118.02 92.6673 117.893C92.9205 117.767 93.2131 117.632 93.5454 117.49C93.8934 117.332 94.2336 117.189 94.5658 117.063C94.898 116.936 95.1828 116.849 95.4201 116.802C96.1162 116.549 96.7411 116.549 97.2948 116.802C97.8486 117.055 98.2915 117.53 98.6238 118.226C98.956 118.922 99.13 119.808 99.1458 120.884C99.0826 121.232 99.043 121.564 99.0272 121.88C99.0272 122.181 99.0035 122.402 98.956 122.545C98.9402 122.893 98.8848 123.288 98.7899 123.731C98.695 124.174 98.6 124.562 98.5051 124.894C98.4102 125.21 98.339 125.377 98.2915 125.392C98.2915 125.456 98.2757 125.519 98.2441 125.582C98.2124 125.63 98.1966 125.677 98.1966 125.725C98.2124 125.804 98.1571 125.986 98.0305 126.27C97.9039 126.555 97.7536 126.872 97.5796 127.22C97.4056 127.568 97.2474 127.868 97.105 128.121C96.9626 128.375 96.8756 128.501 96.8439 128.501C96.8439 128.501 96.8281 128.509 96.7965 128.525C96.7648 128.525 96.7569 128.557 96.7728 128.62C96.7886 128.651 96.7332 128.731 96.6066 128.857C96.4801 128.984 96.3377 129.11 96.1795 129.237C96.0371 129.348 95.9264 129.403 95.8473 129.403C95.8473 129.403 95.8314 129.411 95.7998 129.427C95.784 129.442 95.7998 129.474 95.8473 129.522C95.8631 129.553 95.7365 129.68 95.4676 129.901C95.2144 130.107 94.8901 130.352 94.4946 130.637C94.0991 130.906 93.7036 131.159 93.3081 131.396C92.9125 131.618 92.5961 131.752 92.3588 131.8C92.3114 131.863 92.2639 131.903 92.2164 131.918C92.169 131.918 92.1057 131.926 92.0266 131.942C91.9159 132.053 91.7181 132.14 91.4333 132.203C91.1644 132.282 90.8875 132.322 90.6028 132.322C90.318 132.338 90.0886 132.306 89.9146 132.227ZM92.3114 129.735C92.6278 129.624 92.9442 129.474 93.2606 129.284C93.5928 129.079 93.8776 128.865 94.1149 128.644C94.368 128.406 94.5262 128.185 94.5895 127.979C94.637 127.805 94.6844 127.678 94.7319 127.599C94.7952 127.504 94.8585 127.433 94.9218 127.386C95.0483 127.259 95.2065 127.022 95.3964 126.674C95.602 126.326 95.7998 125.946 95.9896 125.535C96.1795 125.123 96.3377 124.736 96.4643 124.372C96.6066 123.992 96.6857 123.715 96.7016 123.541C96.7016 123.51 96.7253 123.375 96.7728 123.138C96.8202 122.901 96.8756 122.727 96.9389 122.616C96.9705 122.553 96.9784 122.497 96.9626 122.45C96.9626 122.387 96.9547 122.22 96.9389 121.951C96.9389 121.683 96.9468 121.2 96.9626 120.504C96.9468 119.934 96.8914 119.515 96.7965 119.246C96.7174 118.961 96.6146 118.787 96.488 118.724C96.4563 118.692 96.3772 118.661 96.2507 118.629C96.1399 118.597 96.0213 118.582 95.8947 118.582C95.7682 118.566 95.6495 118.582 95.5388 118.629C95.4597 118.645 95.3489 118.685 95.2065 118.748C95.08 118.795 94.9692 118.819 94.8743 118.819C94.7477 118.882 94.6607 118.961 94.6133 119.056C94.5658 119.135 94.5421 119.199 94.5421 119.246C94.5421 119.373 94.4867 119.491 94.3759 119.602C94.2652 119.697 94.1386 119.705 93.9963 119.626C93.7431 119.642 93.5691 119.673 93.4742 119.721C93.3951 119.768 93.316 119.871 93.2369 120.029C93.1736 120.172 93.0391 120.417 92.8334 120.765C92.3905 121.113 92.0741 121.453 91.8842 121.785C91.6944 122.118 91.5836 122.371 91.552 122.545C91.2198 123.146 90.9745 123.613 90.8163 123.945C90.6581 124.261 90.5474 124.546 90.4841 124.799C90.4208 125.052 90.3734 125.361 90.3417 125.725C90.1993 125.994 90.0965 126.278 90.0332 126.579C89.9699 126.88 89.9146 127.077 89.8671 127.172C89.8355 127.251 89.8196 127.402 89.8196 127.623C89.8196 127.829 89.8275 128.066 89.8434 128.335C89.875 128.588 89.9066 128.825 89.9383 129.047C89.9858 129.253 90.0332 129.403 90.0807 129.498C90.1756 129.862 90.405 130.067 90.7689 130.115C91.1327 130.162 91.6469 130.036 92.3114 129.735ZM103.705 132.488C103.594 132.757 103.373 132.876 103.04 132.844C102.724 132.828 102.455 132.694 102.234 132.44C102.234 132.44 102.194 132.433 102.115 132.417C102.052 132.401 101.98 132.338 101.901 132.227C101.601 132.306 101.316 132.203 101.047 131.918C100.794 131.618 100.699 131.135 100.762 130.471C100.857 129.743 100.913 129.055 100.928 128.406C100.944 127.742 100.944 126.982 100.928 126.128C100.928 126.049 100.928 125.962 100.928 125.867C100.944 125.756 100.952 125.661 100.952 125.582C100.968 125.487 100.976 125.424 100.976 125.392C100.992 125.155 101 124.831 101 124.419C101 123.992 101 123.573 101 123.162C101 122.75 101.015 122.45 101.047 122.26C101.015 122.038 101.008 121.809 101.023 121.572C101.039 121.319 101.047 121.066 101.047 120.812C101.047 120.765 101.039 120.67 101.023 120.528C101.008 120.385 100.992 120.211 100.976 120.006C100.96 119.8 100.936 119.586 100.905 119.365C100.921 119.033 100.913 118.795 100.881 118.653C100.865 118.495 100.841 118.376 100.81 118.297C100.778 118.202 100.731 118.099 100.667 117.988C100.509 117.862 100.446 117.743 100.478 117.632C100.525 117.506 100.612 117.395 100.739 117.3C100.865 117.189 100.976 117.11 101.071 117.063C101.213 116.984 101.443 117 101.759 117.11C102.075 117.205 102.36 117.34 102.613 117.514C102.645 117.514 102.669 117.53 102.685 117.561C102.7 117.593 102.724 117.64 102.756 117.704C102.787 117.767 102.827 117.846 102.874 117.941C102.922 118.02 102.985 118.115 103.064 118.226C103.143 118.321 103.191 118.542 103.207 118.89C103.222 119.222 103.23 119.626 103.23 120.1C103.23 120.559 103.214 121.026 103.183 121.501C103.167 121.975 103.143 122.402 103.112 122.782C103.143 123.035 103.151 123.344 103.135 123.708C103.135 124.071 103.151 124.372 103.183 124.609C103.199 124.72 103.207 124.87 103.207 125.06C103.222 125.234 103.23 125.4 103.23 125.559C103.23 125.717 103.214 125.843 103.183 125.938C103.151 126.049 103.135 126.191 103.135 126.365C103.135 126.524 103.135 126.769 103.135 127.101C103.151 127.417 103.167 127.884 103.183 128.501C103.167 128.992 103.143 129.292 103.112 129.403C103.096 129.498 103.143 129.506 103.254 129.427C103.365 129.158 103.444 128.976 103.491 128.881C103.539 128.77 103.586 128.667 103.634 128.572C103.697 128.462 103.792 128.28 103.919 128.027C103.95 127.979 103.998 127.853 104.061 127.647C104.14 127.425 104.203 127.204 104.251 126.982C104.314 126.761 104.338 126.634 104.322 126.603C104.322 126.603 104.354 126.531 104.417 126.389C104.48 126.231 104.591 126.096 104.749 125.986C104.812 125.891 104.86 125.82 104.891 125.772C104.923 125.709 104.947 125.646 104.963 125.582C104.994 125.519 105.034 125.448 105.081 125.369C105.145 125.29 105.224 125.187 105.319 125.06C105.461 124.823 105.651 124.475 105.888 124.016C106.141 123.557 106.402 123.067 106.671 122.545C106.956 122.023 107.225 121.54 107.478 121.097C107.747 120.654 107.961 120.33 108.119 120.124C108.198 119.95 108.277 119.8 108.356 119.673C108.435 119.531 108.53 119.428 108.641 119.365C108.673 119.238 108.752 119.064 108.878 118.843C109.021 118.621 109.131 118.4 109.21 118.178C109.606 117.688 109.922 117.308 110.16 117.039C110.413 116.754 110.595 116.541 110.706 116.398C110.8 116.304 110.887 116.224 110.967 116.161C111.061 116.082 111.141 116.027 111.204 115.995C111.283 115.948 111.338 115.924 111.37 115.924C111.497 115.955 111.678 116.066 111.916 116.256C112.169 116.446 112.39 116.652 112.58 116.873C112.786 117.079 112.873 117.221 112.841 117.3C112.778 117.363 112.636 117.561 112.414 117.893C112.193 118.21 111.9 118.55 111.536 118.914C111.394 119.072 111.251 119.302 111.109 119.602C110.967 119.887 110.808 120.14 110.634 120.361C110.524 120.583 110.365 120.844 110.16 121.145C109.954 121.429 109.788 121.667 109.661 121.857C109.582 122.046 109.487 122.212 109.377 122.355C109.266 122.481 109.147 122.624 109.021 122.782C109.052 122.893 109.036 122.972 108.973 123.019C108.91 123.067 108.862 123.122 108.831 123.185C108.641 123.613 108.499 123.913 108.404 124.087C108.309 124.261 108.174 124.459 108 124.68C107.937 124.791 107.85 124.926 107.739 125.084C107.628 125.226 107.541 125.392 107.478 125.582C107.367 125.693 107.288 125.788 107.241 125.867C107.193 125.93 107.178 126.002 107.193 126.081C107.193 126.081 107.146 126.168 107.051 126.342C106.956 126.516 106.869 126.737 106.79 127.006C106.679 127.18 106.561 127.362 106.434 127.552C106.307 127.742 106.212 127.924 106.149 128.098C106.102 128.177 106.038 128.256 105.959 128.335C105.88 128.398 105.841 128.462 105.841 128.525C105.777 128.588 105.698 128.715 105.603 128.905C105.508 129.079 105.406 129.292 105.295 129.545C105.153 129.735 104.994 130.02 104.82 130.4C104.646 130.763 104.496 131.04 104.369 131.23C104.29 131.436 104.18 131.665 104.037 131.918C103.895 132.172 103.784 132.361 103.705 132.488ZM114.24 133.01C113.924 132.931 113.536 132.804 113.078 132.63C112.619 132.456 112.208 132.266 111.844 132.061C111.48 131.855 111.274 131.681 111.227 131.539C111.227 131.46 111.195 131.396 111.132 131.349C111.068 131.286 110.997 131.254 110.918 131.254C110.918 131.254 110.918 131.246 110.918 131.23C110.918 131.214 110.918 131.159 110.918 131.064C110.918 131.001 110.918 130.938 110.918 130.874C110.934 130.795 110.902 130.732 110.823 130.684C110.713 130.447 110.681 130.059 110.728 129.522C110.792 128.984 110.894 128.406 111.037 127.789C111.195 127.156 111.353 126.611 111.511 126.152C111.511 126.009 111.535 125.867 111.583 125.725C111.646 125.582 111.678 125.472 111.678 125.392C111.725 125.25 111.812 125.036 111.939 124.752C112.065 124.451 112.215 124.127 112.389 123.779C112.564 123.415 112.738 123.075 112.912 122.758C113.086 122.426 113.244 122.173 113.386 121.999C113.386 121.92 113.442 121.817 113.552 121.69C113.663 121.564 113.75 121.39 113.813 121.168C113.94 121.042 114.098 120.828 114.288 120.528C114.494 120.227 114.676 119.95 114.834 119.697C115.166 119.428 115.372 119.191 115.451 118.985C115.53 118.764 115.554 118.59 115.522 118.463C115.538 118.226 115.609 118.044 115.736 117.917C115.862 117.775 116.06 117.656 116.329 117.561C116.598 117.466 116.938 117.371 117.349 117.276C117.855 117.087 118.37 116.952 118.892 116.873C119.43 116.794 120.11 116.746 120.933 116.731C121.186 116.667 121.383 116.636 121.526 116.636C121.668 116.62 121.739 116.612 121.739 116.612C121.771 116.58 121.913 116.58 122.167 116.612C122.42 116.644 122.704 116.715 123.021 116.826C123.337 116.921 123.606 117.039 123.828 117.182C124.065 117.324 124.176 117.49 124.16 117.68C124.16 117.775 123.986 117.886 123.638 118.012C123.29 118.123 122.886 118.234 122.428 118.344C121.969 118.439 121.565 118.51 121.217 118.558C120.505 118.637 119.912 118.708 119.438 118.772C118.963 118.835 118.559 118.938 118.227 119.08C117.911 119.207 117.61 119.412 117.325 119.697C117.057 119.982 116.748 120.393 116.4 120.931C116.084 121.437 115.854 121.849 115.712 122.165C115.569 122.466 115.514 122.687 115.546 122.829C115.593 122.972 115.704 123.043 115.878 123.043C116.068 123.043 116.305 123.027 116.59 122.996C116.875 122.948 117.064 122.924 117.159 122.924C117.159 122.924 117.302 122.877 117.587 122.782C117.887 122.671 118.259 122.584 118.702 122.521C119.208 122.426 119.548 122.355 119.722 122.307C119.912 122.244 120.094 122.205 120.268 122.189C120.806 122.141 121.13 122.236 121.241 122.474C121.352 122.711 121.304 122.98 121.099 123.28C120.909 123.581 120.616 123.81 120.221 123.969C120.062 124.032 119.865 124.103 119.627 124.182C119.39 124.261 119.169 124.332 118.963 124.396C118.757 124.443 118.623 124.467 118.559 124.467C118.559 124.467 118.496 124.483 118.37 124.514C118.259 124.53 118.101 124.538 117.895 124.538C117.848 124.538 117.618 124.57 117.207 124.633C116.795 124.68 116.408 124.728 116.044 124.775C115.49 124.918 115.071 125.036 114.786 125.131C114.517 125.21 114.32 125.321 114.193 125.464C114.066 125.606 113.94 125.835 113.813 126.152C113.671 126.5 113.544 126.903 113.434 127.362C113.323 127.805 113.236 128.248 113.173 128.691C113.125 129.134 113.109 129.522 113.125 129.854C113.157 130.17 113.228 130.384 113.339 130.495C113.623 130.795 114.003 130.985 114.478 131.064C114.952 131.127 115.443 131.096 115.949 130.969C116.471 130.843 116.922 130.661 117.302 130.423C117.428 130.328 117.579 130.233 117.753 130.139C117.942 130.028 118.124 129.941 118.298 129.878C118.504 129.751 118.662 129.711 118.773 129.759C118.9 129.806 119.113 129.941 119.414 130.162C119.683 130.542 119.667 130.906 119.366 131.254C119.082 131.586 118.496 131.942 117.61 132.322C116.788 132.622 116.131 132.82 115.641 132.915C115.166 133.01 114.699 133.042 114.24 133.01Z" fill="white"/>
<path d="M46.2882 24.7086C45.608 24.2656 45.2045 23.8227 45.078 23.3797C44.9672 22.9367 45.1254 22.5808 45.5526 22.3118C45.6475 22.2485 45.8294 22.2406 46.0984 22.2881C46.3832 22.3355 46.5967 22.4305 46.7391 22.5728C47.0555 22.8576 47.4115 23.0316 47.807 23.0949C48.2183 23.174 48.7167 23.1345 49.3021 22.9763C49.9665 22.7706 50.4728 22.5175 50.8208 22.2169C51.1847 21.9005 51.5881 21.4733 52.0311 20.9354C52.3633 20.5083 52.5927 20.089 52.7193 19.6777C52.8617 19.2664 52.925 18.8946 52.9091 18.5623C52.9091 18.2143 52.83 17.9533 52.6718 17.7792C52.2763 17.2255 51.7859 16.8458 51.2005 16.6401C50.6152 16.4187 49.8479 16.4345 48.8986 16.6876C48.7879 16.7034 48.6218 16.7351 48.4003 16.7825C48.1788 16.83 47.981 16.8775 47.807 16.9249C47.633 16.9566 47.5381 16.9724 47.5222 16.9724C47.4115 17.004 47.3245 17.0198 47.2612 17.0198C47.1979 17.0198 47.1188 17.0989 47.0239 17.2571C46.9448 17.3995 46.8182 17.708 46.6442 18.1826C46.4702 18.6414 46.2091 19.3534 45.8611 20.3184C45.5289 21.2835 45.2441 21.9717 45.0068 22.383C44.7853 22.7785 44.5875 22.9604 44.4135 22.9288C44.2395 22.8813 44.0417 22.7073 43.8202 22.4067C43.6937 22.1852 43.5513 21.94 43.3931 21.6711C43.2507 21.4021 43.2586 21.1253 43.4168 20.8405C43.4959 20.6981 43.5592 20.5715 43.6067 20.4608C43.6541 20.3342 43.7174 20.1207 43.7965 19.8201C43.8756 19.5828 44.0259 19.1714 44.2474 18.5861C44.4847 17.9849 44.7616 17.2888 45.078 16.4978C45.3944 15.6909 45.7266 14.8603 46.0747 14.006C46.4227 13.1517 46.7549 12.3449 47.0714 11.5855C47.4036 10.8261 47.6804 10.1854 47.9019 9.6633C48.1234 9.17286 48.2579 8.8169 48.3054 8.59541C48.3528 8.37392 48.337 8.25527 48.2579 8.23945C48.2579 8.16035 48.2342 8.08915 48.1867 8.02587C48.1392 7.94677 48.1234 7.87558 48.1392 7.81229C48.1392 7.74901 48.2737 7.662 48.5427 7.55126C48.8274 7.44051 49.128 7.33768 49.4444 7.24276C49.7608 7.14783 49.9902 7.11619 50.1326 7.14783C50.2117 7.14783 50.3067 7.14783 50.4174 7.14783C50.5281 7.13201 50.5835 7.09246 50.5835 7.02918C50.631 7.02918 50.7813 7.01336 51.0344 6.98172C51.2875 6.95008 51.5644 6.95008 51.865 6.98172C52.925 7.07664 53.7951 7.38514 54.4754 7.90722C55.1556 8.41347 55.4879 9.22823 55.4721 10.3515C55.4562 10.6204 55.3455 10.9685 55.1398 11.3956C54.9342 11.8228 54.6731 12.25 54.3567 12.6771C54.0561 13.1043 53.7318 13.476 53.3837 13.7925C53.1781 13.9665 52.9566 14.1484 52.7193 14.3383C52.4978 14.5123 52.3 14.6626 52.126 14.7891C51.9678 14.8999 51.8887 14.9553 51.8887 14.9553C51.8887 14.9553 51.952 14.979 52.0786 15.0265C52.2051 15.0739 52.3396 15.1214 52.482 15.1688C53.2097 15.4378 53.7793 15.7779 54.1906 16.1893C54.6177 16.6006 54.9183 17.1701 55.0924 17.8979C55.1556 18.1352 55.1556 18.4279 55.0924 18.7759C55.0449 19.124 54.9737 19.472 54.8788 19.8201C54.7839 20.1523 54.681 20.4371 54.5703 20.6744C54.4595 20.7851 54.3725 20.9038 54.3092 21.0303C54.246 21.1411 54.2143 21.1965 54.2143 21.1965C54.2143 21.2281 54.151 21.3547 54.0245 21.5762C53.8979 21.7818 53.7476 22.0112 53.5736 22.2643C53.3996 22.5175 53.2335 22.739 53.0752 22.9288C52.917 23.0554 52.6876 23.2294 52.3871 23.4509C52.1023 23.6882 51.7859 23.9176 51.4378 24.1391C51.1056 24.3606 50.7892 24.5267 50.4886 24.6374C50.0456 24.8273 49.5473 24.9538 48.9936 25.0171C48.4557 25.0962 47.9415 25.1041 47.451 25.0408C46.9606 24.9934 46.573 24.8826 46.2882 24.7086ZM47.9969 14.8603C47.9969 14.8603 48.1234 14.8366 48.3765 14.7891C48.6455 14.7259 48.9382 14.6626 49.2546 14.5993C49.571 14.5202 49.8083 14.449 49.9665 14.3857C50.0456 14.3383 50.1564 14.275 50.2987 14.1959C50.4569 14.1168 50.6152 13.9981 50.7734 13.8399C50.9948 13.6342 51.2322 13.4049 51.4853 13.1517C51.7384 12.8828 51.9836 12.598 52.2209 12.2974C52.4741 11.9968 52.6876 11.6725 52.8617 11.3245C53.2255 10.7549 53.4233 10.3436 53.4549 10.0904C53.4866 9.83732 53.3996 9.60792 53.1939 9.40226C53.0515 9.22823 52.8538 9.10167 52.6006 9.02256C52.3475 8.92764 52.0706 8.88018 51.7701 8.88018C51.4853 8.86436 51.2084 8.896 50.9395 8.9751C50.7338 9.03839 50.5756 9.11749 50.4649 9.21241C50.3541 9.29151 50.2987 9.41808 50.2987 9.5921C50.2987 9.73449 50.2513 9.88478 50.1564 10.043C50.0773 10.1854 49.9982 10.2961 49.9191 10.3752C49.9032 10.486 49.8479 10.5967 49.7529 10.7075C49.6738 10.8024 49.6343 10.8498 49.6343 10.8498C49.6343 10.9131 49.5314 11.1109 49.3258 11.4431C49.1359 11.7595 48.9303 12.2183 48.7088 12.8195C48.424 13.4998 48.2342 13.9902 48.1392 14.2908C48.0443 14.5914 47.9969 14.7812 47.9969 14.8603ZM55.3401 23.7831C55.0553 23.6249 54.8971 23.4509 54.8654 23.261C54.8496 23.0712 54.9604 22.739 55.1977 22.2643C55.435 21.7897 55.8068 21.0541 56.313 20.0574C56.6927 19.3455 56.9458 18.7917 57.0724 18.3962C57.2148 17.9849 57.2939 17.6922 57.3097 17.5182C57.3255 17.3442 57.3334 17.2334 57.3334 17.186C57.3018 17.0436 57.3176 16.9328 57.3809 16.8537C57.4442 16.7588 57.547 16.6797 57.6894 16.6164C57.7685 16.5373 57.9504 16.3949 58.2352 16.1893C58.52 15.9836 58.7415 15.7384 58.8997 15.4536C59.0421 15.1214 59.2003 14.7812 59.3743 14.4332C59.5641 14.0851 59.8094 13.6501 60.1099 13.128C60.4105 12.5901 60.814 11.894 61.3202 11.0397C61.6366 10.486 62.0084 9.86105 62.4356 9.16495C62.8785 8.46885 63.3136 7.83602 63.7408 7.26649C63.9148 7.045 64.0967 6.87097 64.2866 6.74441C64.4764 6.61784 64.6425 6.55456 64.7849 6.55456C65.133 6.55456 65.481 6.64949 65.8291 6.83933C66.1771 7.01336 66.4856 7.23485 66.7546 7.50379C67.0235 7.77274 67.2054 8.02587 67.3004 8.26318C67.3795 8.38974 67.4111 8.65869 67.3953 9.07003C67.3795 9.48136 67.3478 9.97971 67.3004 10.5651C67.2529 11.1504 67.1975 11.7753 67.1343 12.4398C67.0868 13.0884 67.0156 13.8557 66.9207 14.7417C66.8258 15.6276 66.7308 16.5531 66.6359 17.5182C66.5568 18.4832 66.4935 19.4167 66.4461 20.3184C66.3986 21.2044 66.3986 21.9796 66.4461 22.644C66.4619 22.7864 66.4619 22.9209 66.4461 23.0475C66.4302 23.174 66.4223 23.2769 66.4223 23.356C66.3274 23.4509 66.1217 23.4904 65.8053 23.4746C65.4889 23.4746 65.1804 23.4272 64.8798 23.3322C64.5792 23.2373 64.4131 23.1187 64.3815 22.9763C64.334 22.9288 64.3024 22.8893 64.2866 22.8576C64.2707 22.826 64.2707 22.6757 64.2866 22.4067C64.3024 22.122 64.3261 21.6078 64.3578 20.8642L64.4764 17.2334L64.1679 17.2571C64.0255 17.2571 63.7645 17.273 63.3848 17.3046C63.0209 17.3363 62.6175 17.3837 62.1745 17.447C61.7474 17.4945 61.3519 17.5498 60.988 17.6131C60.6241 17.6606 60.371 17.708 60.2286 17.7555C60.0862 17.7555 59.9122 17.8504 59.7065 18.0403C59.5167 18.2301 59.3347 18.4753 59.1607 18.7759C59.0974 18.9974 58.9788 19.2347 58.8047 19.4878C58.6465 19.7252 58.5674 19.8834 58.5674 19.9625C58.4567 20.0416 58.3618 20.1365 58.2827 20.2472C58.2194 20.358 58.1877 20.4133 58.1877 20.4133C58.1877 20.5083 58.1166 20.7456 57.9742 21.1253C57.8318 21.4891 57.6578 21.9005 57.4521 22.3593C57.2464 22.8022 57.0328 23.1898 56.8114 23.5221L56.1706 24.4238L55.3401 23.7831ZM61.0117 15.6197C61.0117 15.6197 61.0987 15.6039 61.2728 15.5723C61.4468 15.5406 61.6524 15.509 61.8898 15.4773C62.1429 15.4299 62.3644 15.4061 62.5542 15.4061C62.9181 15.3112 63.2187 15.24 63.456 15.1926C63.7091 15.1451 63.9148 15.1214 64.073 15.1214C64.2312 15.1056 64.3578 15.1214 64.4527 15.1688C64.516 15.2479 64.5713 15.2954 64.6188 15.3112C64.6821 15.327 64.7137 15.335 64.7137 15.335C64.7295 15.3033 64.7612 15.1372 64.8086 14.8366C64.8561 14.536 64.9115 14.1642 64.9748 13.7213C65.038 13.2783 65.1013 12.8195 65.1646 12.3449C65.2279 11.8544 65.2833 11.4036 65.3307 10.9922C65.3782 10.5651 65.4098 10.2328 65.4256 9.99553C65.4415 9.69494 65.4335 9.42599 65.4019 9.18868C65.3703 8.93555 65.3544 8.80899 65.3544 8.80899C65.2595 8.80899 65.0776 8.98301 64.8086 9.33106C64.5555 9.6633 64.2549 10.1142 63.9069 10.6837C63.5746 11.2374 63.2424 11.8386 62.9102 12.4873C62.752 12.7878 62.6017 13.0252 62.4593 13.1992C62.3327 13.3732 62.2299 13.4602 62.1508 13.4602C62.1191 13.4919 62.0321 13.6184 61.8898 13.8399C61.7632 14.0456 61.6208 14.2829 61.4626 14.5518C61.3202 14.805 61.1936 15.0423 61.0829 15.2638C60.988 15.4694 60.9643 15.5881 61.0117 15.6197ZM78.8037 24.1628C78.7404 24.1628 78.598 24.147 78.3765 24.1153C78.155 24.0995 77.894 24.0521 77.5934 23.973C77.3086 23.8939 77.0397 23.7752 76.7866 23.617C76.5334 23.4746 76.3436 23.2769 76.217 23.0237C76.1063 22.8813 75.9323 22.6836 75.695 22.4305C75.4576 22.1773 75.252 21.9479 75.078 21.7423C74.4926 21.1569 74.0259 20.6981 73.6778 20.3659C73.3456 20.0337 73.0608 19.6935 72.8235 19.3455C72.6337 19.1556 72.4676 18.9341 72.3252 18.681C72.1828 18.412 72.0483 18.1747 71.9218 17.9691C71.811 17.7476 71.6924 17.621 71.5658 17.5894C71.4867 17.6527 71.4155 17.7476 71.3522 17.8741C71.2889 18.0007 71.2336 18.1985 71.1861 18.4674C71.0754 18.7047 70.9725 18.9974 70.8776 19.3455C70.7827 19.6935 70.7115 19.9625 70.664 20.1523C70.5375 20.4371 70.4346 20.7218 70.3555 21.0066C70.2922 21.2756 70.229 21.5129 70.1657 21.7185C70.1024 21.9242 70.0391 22.0903 69.9758 22.2169C69.9284 22.3434 69.873 22.4384 69.8097 22.5017C69.8097 22.5017 69.786 22.6124 69.7385 22.8339C69.6911 23.0396 69.6436 23.2373 69.5961 23.4272C69.4379 24.2024 69.2323 24.5979 68.9791 24.6137C68.7418 24.6453 68.4175 24.4871 68.0062 24.1391C67.8954 23.9334 67.761 23.7277 67.6028 23.5221C67.4445 23.3164 67.3654 23.1819 67.3654 23.1187C67.3654 23.1187 67.4129 22.9842 67.5078 22.7152C67.6028 22.4305 67.7056 22.0982 67.8163 21.7185C67.8954 21.4496 68.0062 21.1015 68.1486 20.6744C68.3068 20.2314 68.465 19.7647 68.6232 19.2743C68.7814 18.768 68.9317 18.2855 69.0741 17.8267C69.2164 17.3521 69.3272 16.9486 69.4063 16.6164C69.4696 16.5531 69.5012 16.4899 69.5012 16.4266C69.517 16.3633 69.5249 16.2763 69.5249 16.1655C69.5566 16.0706 69.6357 15.8491 69.7623 15.5011C69.8888 15.1372 70.0391 14.7338 70.2131 14.2908C70.3872 13.832 70.5533 13.4049 70.7115 13.0093C70.8855 12.598 71.0279 12.3053 71.1386 12.1313C71.2019 12.0047 71.2336 11.894 71.2336 11.7991C71.2494 11.7041 71.2573 11.6567 71.2573 11.6567C71.2573 11.5143 71.3285 11.4273 71.4709 11.3956C71.4709 11.3165 71.4709 11.2374 71.4709 11.1583C71.4867 11.0792 71.5262 11.008 71.5895 10.9448C71.637 10.8182 71.7319 10.573 71.8743 10.2091C72.0167 9.84523 72.1591 9.44972 72.3015 9.02256C72.4597 8.57959 72.5941 8.19199 72.7049 7.85976C72.8156 7.52752 72.871 7.34559 72.871 7.31395C72.871 7.23485 72.8947 7.17156 72.9422 7.1241C72.9896 7.06082 73.0371 6.99754 73.0846 6.93425C73.2428 6.80769 73.4563 6.75232 73.7253 6.76814C73.9942 6.76814 74.2632 6.82351 74.5321 6.93425C74.8169 7.045 75.0226 7.2032 75.1491 7.40887C75.1491 7.47215 75.1254 7.61454 75.078 7.83602C75.0305 8.05751 74.9514 8.30273 74.8406 8.57168C74.7299 8.84063 74.6271 9.07794 74.5321 9.2836C74.4372 9.48927 74.3898 9.5921 74.3898 9.5921C74.3898 9.5921 74.3186 9.81359 74.1762 10.2566C74.0338 10.6837 73.8281 11.2533 73.5592 11.9652C73.2428 12.6138 72.9817 13.1992 72.7761 13.7213C72.5862 14.2275 72.5229 14.5123 72.5862 14.5756C72.5862 14.5756 72.7761 14.4174 73.1558 14.101C73.5513 13.7687 74.0022 13.3574 74.5084 12.867C74.9197 12.4556 75.339 12.0601 75.7661 11.6804C76.2091 11.2849 76.6837 10.9052 77.19 10.5413C77.9177 10.0509 78.4635 9.68703 78.8274 9.44972C79.2071 9.19659 79.4919 9.03048 79.6817 8.95137C79.8716 8.85645 80.0535 8.80899 80.2275 8.80899C80.4332 8.72988 80.5677 8.72197 80.631 8.78526C80.6942 8.83272 80.8208 8.91182 81.0107 9.02256C81.0739 9.13331 81.1293 9.32315 81.1768 9.5921C81.24 9.84523 81.2717 9.9718 81.2717 9.9718C81.2875 10.13 81.2005 10.3198 81.0107 10.5413C80.8208 10.7628 80.5439 10.9685 80.1801 11.1583C79.7846 11.4115 79.302 11.72 78.7325 12.0838C78.1788 12.4477 77.6092 12.8432 77.0239 13.2704C76.4385 13.6817 75.8848 14.093 75.3627 14.5044C74.8406 14.8999 74.3977 15.2559 74.0338 15.5723C73.6857 15.8887 73.4801 16.1339 73.4168 16.3079C73.3061 16.4187 73.3061 16.5294 73.4168 16.6401C73.5434 16.7509 73.7569 16.9486 74.0575 17.2334C74.279 17.5024 74.453 17.7239 74.5796 17.8979C74.7062 18.0561 74.7695 18.1352 74.7695 18.1352C74.7695 18.1668 74.8565 18.2776 75.0305 18.4674C75.2045 18.6573 75.4102 18.8708 75.6475 19.1082C75.9006 19.3455 76.13 19.5669 76.3357 19.7726C76.399 19.9308 76.573 20.1523 76.8578 20.4371C77.1425 20.706 77.4115 21.0383 77.6646 21.4338C78.424 22.2248 78.9065 22.8734 79.1122 23.3797C79.3179 23.8859 79.215 24.147 78.8037 24.1628ZM85.173 24.1865C84.5402 24.1865 83.9706 24.147 83.4644 24.0679C82.9739 24.0046 82.5231 23.8148 82.1117 23.4983C81.6213 23.1345 81.2732 22.6124 81.0676 21.9321C80.8777 21.236 80.9331 20.3263 81.2337 19.2031C81.3128 18.8076 81.3998 18.4595 81.4947 18.1589C81.6055 17.8583 81.7004 17.708 81.7795 17.708C81.7953 17.6289 81.819 17.5182 81.8507 17.3758C81.8823 17.2176 81.914 17.0357 81.9456 16.83C82.0247 16.5452 82.0801 16.3396 82.1117 16.213C82.1434 16.0706 82.2066 15.952 82.3016 15.857C82.349 15.8254 82.4044 15.7226 82.4677 15.5485C82.531 15.3587 82.5705 15.2479 82.5863 15.2163C82.5863 15.2163 82.5943 15.1609 82.6101 15.0502C82.6259 14.9236 82.6654 14.7812 82.7287 14.623C82.966 14.2275 83.0847 13.9665 83.0847 13.8399C83.1163 13.7766 83.1796 13.6817 83.2745 13.5551C83.3853 13.4286 83.4723 13.2625 83.5356 13.0568C84.0102 12.2183 84.3978 11.5301 84.6984 10.9922C84.999 10.4385 85.1809 10.0113 85.2442 9.71076C85.3233 9.53673 85.3945 9.33106 85.4578 9.09376C85.5369 8.84063 85.6318 8.65078 85.7425 8.52422C85.7109 8.44512 85.7979 8.3581 86.0036 8.26318C86.2251 8.16826 86.5098 8.06542 86.8579 7.95468C87.2059 7.84394 87.5777 7.74901 87.9732 7.66991C88.3687 7.59081 88.7326 7.54335 89.0648 7.52753C89.1598 7.46424 89.3654 7.41678 89.6818 7.38514C90.0141 7.3535 90.3938 7.33768 90.8209 7.33768C91.2481 7.33768 91.6436 7.3535 92.0075 7.38514C92.3555 7.38514 92.6324 7.4326 92.838 7.52753C93.0437 7.62245 93.2494 7.71737 93.455 7.81229C93.5341 7.8914 93.6449 8.00214 93.7873 8.14452C93.9297 8.28691 94.0167 8.4372 94.0483 8.59541C94.0958 8.75362 93.9929 8.896 93.7398 9.02256C93.6924 9.07003 93.4313 9.10958 92.9567 9.14122C92.4821 9.17286 91.9837 9.18868 91.4617 9.18868C90.8763 9.18868 90.37 9.23614 89.9429 9.33106C89.5157 9.42599 89.2151 9.47345 89.0411 9.47345C88.8196 9.53673 88.5586 9.57628 88.258 9.5921C87.9574 9.60792 87.8071 9.61583 87.8071 9.61583C87.7755 9.61583 87.6964 9.71076 87.5698 9.9006C87.4432 10.0746 87.3009 10.2882 87.1427 10.5413C87.0003 10.7786 86.8658 11.0001 86.7392 11.2058C86.6285 11.4115 86.5731 11.538 86.5731 11.5855C86.5731 11.7437 86.5098 11.9177 86.3833 12.1076C86.2567 12.2974 86.1064 12.5189 85.9324 12.772C85.7742 12.9777 85.6713 13.1992 85.6239 13.4365C85.5764 13.658 85.6239 13.8004 85.7663 13.8636C86.0194 13.8162 86.3674 13.7687 86.8104 13.7213C87.2692 13.6738 87.7201 13.6342 88.1631 13.6026C88.6061 13.5551 88.9462 13.5314 89.1835 13.5314C89.4525 13.4523 89.6739 13.4365 89.848 13.484C90.022 13.5314 90.1486 13.5789 90.2277 13.6263C90.4175 13.658 90.5282 13.7529 90.5599 13.9111C90.6073 14.0693 90.6073 14.2275 90.5599 14.3857C90.5124 14.5439 90.4333 14.6468 90.3226 14.6942C90.2277 14.7891 89.9903 14.8999 89.6107 15.0265C89.231 15.153 88.7801 15.2796 88.258 15.4061C87.7517 15.5327 87.2376 15.6514 86.7155 15.7621C86.2092 15.857 85.7663 15.9361 85.3866 15.9994C85.0227 16.0627 84.8091 16.0864 84.7458 16.0706C84.6509 15.8491 84.5402 15.857 84.4136 16.0943C84.3029 16.3158 84.1684 16.7746 84.0102 17.4707C83.8362 17.8662 83.7017 18.1668 83.6068 18.3725C83.5277 18.5623 83.4644 18.7759 83.4169 19.0132C83.3695 19.2347 83.2983 19.5907 83.2033 20.0811C83.0926 20.5083 83.1005 20.8959 83.2271 21.2439C83.3695 21.5762 83.6938 21.8609 84.2 22.0982C84.5164 22.1615 84.8803 22.1852 85.2917 22.1694C85.703 22.1536 86.2488 22.0587 86.9291 21.8847C87.2138 21.7106 87.4986 21.5524 87.7834 21.41C88.0682 21.2518 88.2659 21.1411 88.3767 21.0778C88.4558 21.0778 88.5744 21.0462 88.7326 20.9829C88.9066 20.9038 89.0253 20.8642 89.0886 20.8642C89.2151 20.6902 89.3733 20.6032 89.5632 20.6032C89.5948 20.6032 89.6818 20.6744 89.8242 20.8168C89.9824 20.9592 90.1327 21.1411 90.2751 21.3626C90.4175 21.5841 90.4887 21.8135 90.4887 22.0508C90.4887 22.209 90.2197 22.4146 89.6818 22.6678C89.1598 22.9209 88.5032 23.2057 87.7122 23.5221C87.3167 23.6961 86.9924 23.8306 86.7392 23.9255C86.5019 24.0204 86.2725 24.0837 86.051 24.1153C85.8296 24.1628 85.5369 24.1865 85.173 24.1865ZM93.1855 23.7357C93.0114 23.5774 92.8453 23.4509 92.6871 23.356C92.5447 23.261 92.4419 23.1345 92.3786 22.9763C92.3312 22.8181 92.347 22.5808 92.4261 22.2643C92.4577 22.0429 92.5131 21.7502 92.5922 21.3863C92.6871 21.0066 92.7821 20.6032 92.877 20.176C92.9877 19.7489 93.0985 19.3534 93.2092 18.9895C93.3199 18.6098 93.407 18.3171 93.4702 18.1115C93.4861 17.9849 93.5256 17.8109 93.5889 17.5894C93.668 17.3521 93.755 17.1543 93.8499 16.9961L94.111 16.1893C94.1584 16.0311 94.2375 15.7938 94.3483 15.4773C94.4748 15.1609 94.5935 14.8682 94.7042 14.5993C94.815 14.3145 94.8704 14.1721 94.8704 14.1721C95.0286 13.8557 95.2184 13.4365 95.4399 12.9144C95.6772 12.3923 95.9224 11.8465 96.1756 11.277C96.4287 10.7075 96.6581 10.1933 96.8637 9.73449C97.0852 9.27569 97.2434 8.95928 97.3384 8.78526C97.37 8.64287 97.3463 8.55586 97.2672 8.52422C97.2039 8.49258 96.9428 8.46094 96.4841 8.42929C96.2309 8.44512 95.8908 8.53213 95.4636 8.69033C95.0523 8.83272 94.7201 8.94346 94.4669 9.02256C94.1505 9.11749 93.9369 9.07794 93.8262 8.90391C93.7313 8.72988 93.7234 8.50049 93.8025 8.21572C93.8974 7.93095 94.0635 7.662 94.3008 7.40887C94.5381 7.15574 94.8387 6.99754 95.2026 6.93425C95.4241 6.87097 95.7405 6.8156 96.1518 6.76814C96.5632 6.72068 96.9666 6.68113 97.3621 6.64949C97.7576 6.60202 98.0503 6.57829 98.2401 6.57829C99.3476 6.54665 100.344 6.63367 101.23 6.83933C102.116 7.045 103.018 7.4326 103.936 8.00214C104.173 8.16035 104.418 8.38974 104.671 8.69033C104.94 8.9751 105.185 9.25987 105.407 9.54464C105.628 9.82941 105.779 10.043 105.858 10.1854C105.889 10.2487 105.961 10.3831 106.071 10.5888C106.198 10.7945 106.301 11.0318 106.38 11.3007C106.554 11.6804 106.665 12.155 106.712 12.7246C106.775 13.2941 106.783 13.8716 106.736 14.4569C106.704 15.0265 106.617 15.5406 106.475 15.9994C106.237 16.7113 105.874 17.4707 105.383 18.2776C104.908 19.0686 104.371 19.7963 103.769 20.4608C103.168 21.1094 102.575 21.592 101.99 21.9084C101.768 22.0191 101.555 22.122 101.349 22.2169C101.143 22.3118 100.953 22.383 100.779 22.4305C100.732 22.4937 100.542 22.6045 100.21 22.7627C99.8776 22.9209 99.49 23.0949 99.047 23.2848C98.604 23.4746 98.1848 23.6486 97.7892 23.8068C97.4096 23.9809 97.1327 24.1074 96.9587 24.1865C96.7846 24.1707 96.6343 24.1865 96.5078 24.234C96.397 24.2973 96.3179 24.3527 96.2705 24.4001C96.049 24.4634 95.8117 24.5109 95.5586 24.5425C95.3212 24.5741 95.0207 24.5821 94.6568 24.5662L93.6364 24.6137L93.1855 23.7357ZM95.606 22.2881C95.8275 22.3039 96.1044 22.2327 96.4366 22.0745C96.7688 21.9163 97.0694 21.7818 97.3384 21.6711C97.5124 21.6078 97.6469 21.5762 97.7418 21.5762C97.8525 21.5762 97.9079 21.5762 97.9079 21.5762C97.9712 21.5762 98.1057 21.5366 98.3113 21.4575C98.5328 21.3626 98.7859 21.2518 99.0707 21.1253C99.3555 20.9829 99.6402 20.8484 99.925 20.7218C100.226 20.5795 100.479 20.4608 100.684 20.3659C100.858 20.176 101.08 19.9466 101.349 19.6777C101.634 19.4087 101.839 19.1952 101.966 19.037C102.172 18.9262 102.338 18.768 102.464 18.5623C102.607 18.3567 102.725 18.238 102.82 18.2064C102.899 18.2064 103.01 18.0561 103.152 17.7555C103.311 17.4549 103.493 17.1543 103.698 16.8537C103.936 16.4424 104.11 16.1181 104.22 15.8808C104.347 15.6276 104.426 15.3982 104.458 15.1926C104.505 14.9711 104.537 14.71 104.553 14.4095C104.568 13.7608 104.56 13.2466 104.529 12.867C104.497 12.4873 104.434 12.1629 104.339 11.894C104.244 11.6092 104.102 11.3245 103.912 11.0397C103.58 10.5967 103.279 10.2645 103.01 10.043C102.757 9.8215 102.52 9.65539 102.298 9.54464C102.092 9.513 101.887 9.45763 101.681 9.37853C101.475 9.2836 101.357 9.22823 101.325 9.21241C101.262 9.10167 101.104 9.01465 100.851 8.95137C100.597 8.87227 100.328 8.8169 100.044 8.78526C99.7747 8.73779 99.5611 8.71406 99.4029 8.71406C99.3555 8.77735 99.3238 8.83272 99.308 8.88018C99.308 8.91182 99.2922 9.03838 99.2606 9.25987C99.2606 9.33898 99.2052 9.53673 99.0944 9.85314C98.9837 10.1696 98.8492 10.4939 98.691 10.8261C98.5328 11.1583 98.3825 11.3798 98.2401 11.4906C98.2085 11.5697 98.1215 11.7674 97.9791 12.0838C97.8525 12.4002 97.6864 12.8037 97.4807 13.2941C97.2909 13.7845 97.0852 14.3224 96.8637 14.9078C96.6423 15.4773 96.4366 16.0627 96.2467 16.6639C96.1518 16.8695 96.0332 17.0515 95.8908 17.2097C95.7642 17.3521 95.7009 17.4233 95.7009 17.4233C95.6851 17.534 95.6693 17.6448 95.6535 17.7555C95.6377 17.8662 95.5981 17.977 95.5348 18.0877C95.3608 18.768 95.2184 19.3534 95.1077 19.8438C94.9969 20.3184 94.8704 20.8484 94.728 21.4338L94.4432 22.2406L95.606 22.2881Z" fill="white"/>
</svg>
