<svg width="39" height="39" viewBox="0 0 39 39" fill="none" xmlns="http://www.w3.org/2000/svg">
<path d="M12.537 3.21411H26.0386C31.1821 3.21411 35.3611 7.39318 35.3611 12.5366V26.0382C35.3611 28.5107 34.3789 30.8819 32.6306 32.6303C30.8823 34.3786 28.5111 35.3608 26.0386 35.3608H12.537C7.39354 35.3608 3.21448 31.1817 3.21448 26.0382V12.5366C3.21448 10.0642 4.19667 7.69293 5.94498 5.94462C7.6933 4.1963 10.0645 3.21411 12.537 3.21411ZM12.2155 6.42878C10.6809 6.42878 9.2091 7.03841 8.12394 8.12357C7.03878 9.20873 6.42914 10.6805 6.42914 12.2152V26.3597C6.42914 29.5583 9.01695 32.1461 12.2155 32.1461H26.3601C27.8947 32.1461 29.3665 31.5365 30.4517 30.4513C31.5368 29.3661 32.1465 27.8944 32.1465 26.3597V12.2152C32.1465 9.01658 29.5587 6.42878 26.3601 6.42878H12.2155ZM27.7263 8.83978C28.2592 8.83978 28.7702 9.05146 29.147 9.42825C29.5238 9.80504 29.7355 10.3161 29.7355 10.8489C29.7355 11.3818 29.5238 11.8928 29.147 12.2696C28.7702 12.6464 28.2592 12.8581 27.7263 12.8581C27.1934 12.8581 26.6824 12.6464 26.3056 12.2696C25.9288 11.8928 25.7171 11.3818 25.7171 10.8489C25.7171 10.3161 25.9288 9.80504 26.3056 9.42825C26.6824 9.05146 27.1934 8.83978 27.7263 8.83978ZM19.2878 11.2508C21.4193 11.2508 23.4634 12.0975 24.9706 13.6047C26.4778 15.1118 27.3245 17.156 27.3245 19.2874C27.3245 21.4189 26.4778 23.4631 24.9706 24.9702C23.4634 26.4774 21.4193 27.3241 19.2878 27.3241C17.1564 27.3241 15.1122 26.4774 13.605 24.9702C12.0979 23.4631 11.2511 21.4189 11.2511 19.2874C11.2511 17.156 12.0979 15.1118 13.605 13.6047C15.1122 12.0975 17.1564 11.2508 19.2878 11.2508ZM19.2878 14.4654C18.0089 14.4654 16.7824 14.9735 15.8781 15.8778C14.9738 16.7821 14.4658 18.0086 14.4658 19.2874C14.4658 20.5663 14.9738 21.7928 15.8781 22.6971C16.7824 23.6014 18.0089 24.1094 19.2878 24.1094C20.5667 24.1094 21.7932 23.6014 22.6975 22.6971C23.6018 21.7928 24.1098 20.5663 24.1098 19.2874C24.1098 18.0086 23.6018 16.7821 22.6975 15.8778C21.7932 14.9735 20.5667 14.4654 19.2878 14.4654Z" fill="white"/>
</svg>
