<svg width="30" height="24" viewBox="0 0 30 24" fill="none" xmlns="http://www.w3.org/2000/svg">
<g clip-path="url(#clip0_131_353)">
<path d="M3.66152 3.76221C1.78645 3.76221 0.264648 4.96915 0.264648 6.45628V17.2326C0.264648 18.7197 1.78645 19.9266 3.66152 19.9266H26.3073C28.1824 19.9266 29.7042 18.7197 29.7042 17.2326V6.45628C29.7042 4.96915 28.1824 3.76221 26.3073 3.76221H3.66152ZM3.66152 5.55826H26.3073C26.9312 5.55826 27.4396 5.96147 27.4396 6.45628V6.90529L14.9844 12.2378L2.52923 6.90529V6.45628C2.52923 5.96147 3.03763 5.55826 3.66152 5.55826ZM2.52923 7.15764L9.92422 11.7322L2.67077 17.6259L11.5174 12.6302L14.9844 14.3984L18.4526 12.6302L27.2981 17.6259L20.0446 11.7322L27.4396 7.15764V17.2326C27.4334 17.3708 27.3848 17.5058 27.2981 17.6259C27.1113 17.9178 26.7478 18.1306 26.3073 18.1306H3.66152C3.22106 18.1306 2.8576 17.9187 2.67077 17.6259C2.58425 17.5061 2.53568 17.3705 2.52923 17.2326V7.15764Z" fill="white"/>
</g>
<defs>
<clipPath id="clip0_131_353">
<rect width="29.4396" height="23.3486" fill="white" transform="translate(0.264648 0.170166)"/>
</clipPath>
</defs>
</svg>
