<svg width="65" height="68" viewBox="0 0 65 68" fill="none" xmlns="http://www.w3.org/2000/svg">
<g clip-path="url(#clip0_63_114)">
<path d="M32.5 36.1333C31.9254 36.1333 31.3743 36.3712 30.968 36.7947C30.5616 37.2183 30.3334 37.7927 30.3334 38.3916C30.3334 38.9906 30.5616 39.565 30.968 39.9885C31.3743 40.412 31.9254 40.65 32.5 40.65C33.0747 40.65 33.6258 40.412 34.0321 39.9885C34.4384 39.565 34.6667 38.9906 34.6667 38.3916C34.6667 37.7927 34.4384 37.2183 34.0321 36.7947C33.6258 36.3712 33.0747 36.1333 32.5 36.1333Z" fill="white"/>
<path fill-rule="evenodd" clip-rule="evenodd" d="M52 27.9627L34.6667 18.9294V13.55H47.6667V0H30.3333V18.9294L13 27.9627V36.1333H4.33333V63.2333H0V67.75H26V49.6833H39V67.75H65V63.2333H60.6667V36.1333H52V27.9627ZM56.3333 63.2333V40.65H52V63.2333H56.3333ZM13 63.2333H8.66667V40.65H13V63.2333ZM26 38.3917C26 36.5948 26.6848 34.8716 27.9038 33.601C29.1228 32.3305 30.7761 31.6167 32.5 31.6167C34.2239 31.6167 35.8772 32.3305 37.0962 33.601C38.3152 34.8716 39 36.5948 39 38.3917C39 40.1885 38.3152 41.9118 37.0962 43.1823C35.8772 44.4529 34.2239 45.1667 32.5 45.1667C30.7761 45.1667 29.1228 44.4529 27.9038 43.1823C26.6848 41.9118 26 40.1885 26 38.3917Z" fill="white"/>
<path d="M34.6667 67.75V54.2H30.3334V67.75H34.6667Z" fill="white"/>
</g>
<defs>
<clipPath id="clip0_63_114">
<rect width="65" height="67.75" fill="white"/>
</clipPath>
</defs>
</svg>
