<svg width="31" height="24" viewBox="0 0 31 24" fill="none" xmlns="http://www.w3.org/2000/svg">
<path d="M26.0045 16.4319C25.9554 16.1909 25.7649 15.985 25.4796 15.8626L21.2595 13.8906L21.2247 13.8752C21.0478 13.8049 20.8524 13.7689 20.6545 13.7701C20.3009 13.7701 19.9632 13.8763 19.7289 14.0627L18.4833 15.051C18.43 15.0912 18.2563 15.1493 18.2036 15.1514C18.1892 15.1505 16.7543 15.0685 14.1127 12.9732C11.4758 10.8824 11.3639 9.74084 11.3631 9.74084C11.3645 9.68247 11.437 9.54518 11.4885 9.50268L12.5507 8.6605C12.9248 8.36304 13.037 7.86991 12.815 7.48793L10.4693 3.98727C10.2988 3.70896 9.96763 3.53711 9.60022 3.53711C9.34027 3.53711 9.08945 3.62257 8.89338 3.77783L5.998 6.06903C5.72038 6.28804 5.48133 6.67096 5.42923 6.97916C5.40391 7.12649 4.89019 10.6433 10.9695 15.4655C16.1305 19.5582 20.1549 19.8762 21.2662 19.8762C21.4016 19.8776 21.5369 19.8721 21.6713 19.8597C22.0588 19.8186 22.541 19.6294 22.8168 19.4102L25.7099 17.116C25.946 16.9278 26.0537 16.6791 26.0045 16.4319Z" fill="white"/>
</svg>
