<svg width="39" height="34" viewBox="0 0 39 34" fill="none" xmlns="http://www.w3.org/2000/svg">
<path fill-rule="evenodd" clip-rule="evenodd" d="M31.7684 6.20281C32.1654 6.05717 32.5999 6.00694 33.0266 6.05735C33.4534 6.10775 33.8569 6.25695 34.1951 6.48942C34.5333 6.72188 34.7938 7.02911 34.9495 7.37912C35.1053 7.72914 35.1506 8.10915 35.0807 8.47959L31.4375 27.7427C31.0841 29.6008 28.7453 30.6663 26.7904 29.7408C25.1552 28.9665 22.7264 27.7735 20.5418 26.5286C19.4495 25.9055 16.1035 23.9102 16.5147 22.4904C16.8681 21.2764 22.4903 16.7144 25.7029 14.0021C26.9639 12.9365 26.3888 12.3218 24.8998 13.302C21.2004 15.7356 15.265 19.4364 13.3021 20.4782C11.5705 21.3968 10.6677 21.5536 9.58825 21.3968C7.61889 21.1111 5.79249 20.6687 4.30182 20.1296C2.28749 19.4014 2.38547 16.9874 4.30022 16.2845L31.7684 6.20281Z" fill="white"/>
</svg>
