<svg width="65" height="68" viewBox="0 0 65 68" fill="none" xmlns="http://www.w3.org/2000/svg">
<path d="M13.2425 53.9281L1.3056 47.1141L5.22238 43.0257L14.5481 44.3885L29.0961 29.203L0 12.6546L5.22238 7.2034L40.8465 16.743L55.4878 1.65483C56.5447 0.551612 57.8665 0 59.4531 0C61.0397 0 62.3602 0.551612 63.4146 1.65483C64.4715 2.75806 65 4.13774 65 5.79387C65 7.45 64.4715 8.82838 63.4146 9.92901L48.8666 25.1145L58.0057 62.2997L52.7834 67.7509L36.9297 37.3798L22.3816 52.5653L23.6872 62.2997L19.7704 66.3881L13.2425 53.9281Z" fill="white"/>
</svg>
