<svg width="39" height="39" viewBox="0 0 39 39" fill="none" xmlns="http://www.w3.org/2000/svg">
<path d="M12.8027 9.96839C12.504 9.92491 12.1994 9.98504 11.9396 10.1388H11.9171C11.3143 10.4924 10.771 10.9376 10.3081 11.4616C9.92236 11.9068 9.7134 12.3569 9.65875 12.7909C9.62661 13.048 9.64911 13.3084 9.72466 13.5544L9.75359 13.5704C10.1876 14.845 10.7533 16.0714 11.4445 17.2255C12.3357 18.8465 13.4324 20.3456 14.7074 21.6858L14.746 21.7405L14.807 21.7855L14.844 21.8289L14.889 21.8675C16.2339 23.1463 17.7366 24.2482 19.3606 25.1464C21.2171 26.1574 22.3438 26.6348 23.0205 26.8341V26.8438C23.2182 26.9049 23.3982 26.9322 23.5799 26.9322C24.1562 26.8896 24.7016 26.6553 25.1293 26.2667C25.6517 25.8038 26.0937 25.2589 26.4377 24.653V24.6417C26.7608 24.0309 26.6515 23.4555 26.1854 23.0649C25.2491 22.2469 24.2367 21.5203 23.162 20.895C22.4419 20.5045 21.7105 20.7407 21.4148 21.1361L20.7831 21.9334C20.4584 22.3288 19.8701 22.2741 19.8701 22.2741L19.8541 22.2838C15.4644 21.1635 14.2927 16.7192 14.2927 16.7192C14.2927 16.7192 14.238 16.1148 14.6447 15.8062L15.4355 15.1697C15.8148 14.8611 16.0784 14.1314 15.6718 13.4113C15.0507 12.3356 14.3256 11.3235 13.5067 10.3895C13.3281 10.1697 13.0777 10.02 12.7995 9.96678L12.8027 9.96839ZM20.2205 8.03638C20.0074 8.03638 19.803 8.12105 19.6523 8.27177C19.5015 8.42248 19.4169 8.6269 19.4169 8.84004C19.4169 9.05319 19.5015 9.2576 19.6523 9.40832C19.803 9.55904 20.0074 9.64371 20.2205 9.64371C22.2522 9.64371 23.9399 10.3075 25.2756 11.5805C25.9619 12.2765 26.4972 13.1011 26.8476 14.0044C27.1996 14.9093 27.3603 15.8753 27.3185 16.843C27.3096 17.0561 27.3857 17.2641 27.53 17.4211C27.6744 17.5782 27.8753 17.6714 28.0884 17.6804C28.3016 17.6893 28.5096 17.6132 28.6666 17.4689C28.8236 17.3245 28.9169 17.1236 28.9259 16.9105C28.9757 15.7202 28.7781 14.5326 28.3456 13.4225C27.9112 12.3073 27.2525 11.293 26.4104 10.4426L26.3943 10.4265C24.7371 8.84326 22.6412 8.03638 20.2205 8.03638Z" fill="white"/>
<path d="M20.1643 10.6784C19.9511 10.6784 19.7467 10.763 19.596 10.9138C19.4453 11.0645 19.3606 11.2689 19.3606 11.482C19.3606 11.6952 19.4453 11.8996 19.596 12.0503C19.7467 12.201 19.9511 12.2857 20.1643 12.2857H20.1916C21.6575 12.3902 22.7247 12.8788 23.4722 13.6809C24.2389 14.507 24.6359 15.5341 24.6053 16.8039C24.6004 17.0171 24.6804 17.2234 24.8276 17.3776C24.9749 17.5318 25.1774 17.6212 25.3905 17.6261C25.6037 17.631 25.81 17.551 25.9642 17.4037C26.1184 17.2565 26.2078 17.054 26.2127 16.8409C26.2512 15.1741 25.7144 13.7355 24.6503 12.5879V12.5847C23.5622 11.4177 22.069 10.8005 20.272 10.68L20.2446 10.6768L20.1643 10.6784Z" fill="white"/>
<path d="M20.1337 13.3713C20.0262 13.3618 19.9178 13.3741 19.8151 13.4074C19.7124 13.4407 19.6174 13.4944 19.5359 13.5652C19.4544 13.636 19.388 13.7225 19.3407 13.8196C19.2934 13.9166 19.2661 14.0222 19.2605 14.13C19.2549 14.2378 19.271 14.3457 19.308 14.4471C19.345 14.5486 19.4021 14.6415 19.4758 14.7204C19.5495 14.7993 19.6383 14.8626 19.737 14.9064C19.8357 14.9502 19.9422 14.9737 20.0501 14.9754C20.722 15.0108 21.1511 15.2133 21.4212 15.4849C21.6928 15.7582 21.8953 16.197 21.9323 16.8833C21.9343 16.9911 21.958 17.0975 22.002 17.196C22.046 17.2945 22.1093 17.3831 22.1883 17.4566C22.2672 17.5301 22.3602 17.587 22.4616 17.6238C22.563 17.6606 22.6707 17.6766 22.7785 17.6709C22.8862 17.6652 22.9916 17.6378 23.0886 17.5905C23.1855 17.5431 23.2719 17.4768 23.3426 17.3953C23.4134 17.3139 23.467 17.219 23.5003 17.1164C23.5336 17.0138 23.5459 16.9056 23.5364 16.7981C23.485 15.8337 23.1828 14.9818 22.564 14.355C21.942 13.7281 21.0949 13.4227 20.1337 13.3713Z" fill="white"/>
<path fill-rule="evenodd" clip-rule="evenodd" d="M11.359 3.8311C16.4737 2.68781 21.7777 2.68781 26.8923 3.8311L27.4372 3.95165C28.9323 4.2859 30.3055 5.02812 31.4042 6.09587C32.5029 7.16361 33.284 8.51506 33.6608 10C34.959 15.116 34.959 20.4752 33.6608 25.5912C33.284 27.0762 32.5029 28.4276 31.4042 29.4953C30.3055 30.5631 28.9323 31.3053 27.4372 31.6396L26.8907 31.7601C23.6873 32.4765 20.4003 32.7464 17.1229 32.5622L12.8587 36.378C12.6979 36.5219 12.5015 36.6201 12.2898 36.6622C12.0782 36.7043 11.8591 36.6888 11.6555 36.6174C11.4519 36.546 11.2712 36.4212 11.1322 36.2561C10.9933 36.091 10.9012 35.8916 10.8656 35.6788L10.16 31.4644C8.80689 31.0434 7.58439 30.2824 6.60932 29.2541C5.63425 28.2258 4.93919 26.9647 4.59056 25.5912C3.29224 20.4752 3.29224 15.116 4.59056 10C4.96735 8.51506 5.74848 7.16361 6.84715 6.09587C7.94582 5.02812 9.31902 4.2859 10.8142 3.95165L11.359 3.8311ZM26.3667 6.18263C21.5982 5.11665 16.6531 5.11665 11.8846 6.18263L11.3381 6.30479C10.2785 6.54212 9.30529 7.06852 8.52672 7.82553C7.74814 8.58255 7.19462 9.54055 6.92762 10.5932C5.72809 15.3199 5.72809 20.2713 6.92762 24.9981C7.19474 26.0509 7.74851 27.009 8.52739 27.766C9.30627 28.5231 10.2798 29.0494 11.3397 29.2864L11.4844 29.3186C11.7184 29.3709 11.9315 29.4919 12.0964 29.6659C12.2614 29.84 12.3706 30.0593 12.4102 30.2958L12.8828 33.1215L15.8917 30.4292C16.0119 30.3214 16.1525 30.2388 16.3052 30.1864C16.4578 30.1339 16.6195 30.1126 16.7806 30.1239C19.9937 30.3518 23.223 30.1108 26.3667 29.4086L26.9116 29.2864C27.9716 29.0494 28.9451 28.5231 29.724 27.766C30.5028 27.009 31.0566 26.0509 31.3237 24.9981C32.5228 20.2725 32.5228 15.3203 31.3237 10.5932C31.0566 9.54034 30.5028 8.5822 29.724 7.82517C28.9451 7.06814 27.9716 6.54185 26.9116 6.30479L26.3667 6.18263Z" fill="white"/>
</svg>
