<svg width="31" height="32" viewBox="0 0 31 32" fill="none" xmlns="http://www.w3.org/2000/svg">
<path d="M10.8185 1L5.59924 6.30708" stroke="white" stroke-width="2" stroke-miterlimit="10" stroke-linecap="round" stroke-linejoin="round"/>
<path d="M20.0171 1L25.2363 6.30708" stroke="white" stroke-width="2" stroke-miterlimit="10" stroke-linecap="round" stroke-linejoin="round"/>
<path d="M1 9.55267C1 6.84796 2.42736 6.62866 4.20075 6.62866H26.6349C28.4082 6.62866 29.8356 6.84796 29.8356 9.55267C29.8356 12.696 28.4082 12.4767 26.6349 12.4767H4.20075C2.42736 12.4767 1 12.696 1 9.55267Z" stroke="white" stroke-width="2"/>
<path d="M12.1882 18.5439V23.7341" stroke="white" stroke-width="2" stroke-linecap="round"/>
<path d="M18.8204 18.5439V23.7341" stroke="white" stroke-width="2" stroke-linecap="round"/>
<path d="M3.16272 12.696L5.19563 25.3277C5.657 28.164 6.76717 30.24 10.8907 30.24H19.5846C24.0685 30.24 24.7318 28.2517 25.2508 25.5031L27.673 12.696" stroke="white" stroke-width="2" stroke-linecap="round"/>
</svg>
